<svg xmlns="http://www.w3.org/2000/svg" viewBox="0 0 1280 400" width="1280" height="400">
  <defs>
    <linearGradient id="g" x1="0" y1="0" x2="1280" y2="400" gradientUnits="userSpaceOnUse">
      <stop offset="0%"   stop-color="#1c6fff"/>
      <stop offset="33%"  stop-color="#5535e0"/>
      <stop offset="66%"  stop-color="#e84520"/>
      <stop offset="100%" stop-color="#f5a000"/>
    </linearGradient>
    <linearGradient id="gh" x1="0" y1="0" x2="1280" y2="0" gradientUnits="userSpaceOnUse">
      <stop offset="0%"   stop-color="#1c6fff"/>
      <stop offset="33%"  stop-color="#5535e0"/>
      <stop offset="66%"  stop-color="#e84520"/>
      <stop offset="100%" stop-color="#f5a000"/>
    </linearGradient>
  </defs>
  <rect width="1280" height="400" fill="#0b0b0c"/>
  <pattern id="gr" width="40" height="40" patternUnits="userSpaceOnUse">
    <path d="M 40 0 L 0 0 0 40" fill="none" stroke="rgba(255,255,255,0.022)" stroke-width="1"/>
  </pattern>
  <rect width="1280" height="400" fill="url(#gr)"/>
  <rect width="1280" height="3" fill="url(#gh)"/>
  <!-- Mark -->
  <circle cx="200" cy="200" r="140" stroke="url(#g)" stroke-width="2.5" fill="none"/>
  <circle cx="200" cy="200" r="90"  stroke="url(#g)" stroke-width="1.5" fill="none" opacity="0.45"/>
  <circle cx="200" cy="200" r="10"  fill="url(#g)"/>
  <circle cx="200" cy="60"  r="8" fill="#1c6fff"/>
  <circle cx="340" cy="200" r="8" fill="#5535e0"/>
  <circle cx="200" cy="340" r="8" fill="#e84520"/>
  <circle cx="60"  cy="200" r="8" fill="#f5a000"/>
  <path d="M200 60 Q242 130 200 200 Q158 130 200 60"  stroke="url(#g)" stroke-width="1.8" fill="none" opacity="0.4"/>
  <path d="M340 200 Q270 242 200 200 Q270 158 340 200" stroke="url(#g)" stroke-width="1.8" fill="none" opacity="0.4"/>
  <path d="M200 340 Q158 270 200 200 Q242 270 200 340" stroke="url(#g)" stroke-width="1.8" fill="none" opacity="0.4"/>
  <path d="M60 200 Q130 158 200 200 Q130 242 60 200"   stroke="url(#g)" stroke-width="1.8" fill="none" opacity="0.4"/>
  <!-- Text -->
  <text x="420" y="190" font-family="'IBM Plex Mono',monospace" font-size="56" font-weight="600" fill="url(#g)" letter-spacing="2">Open</text>
  <text x="590" y="190" font-family="'IBM Plex Mono',monospace" font-size="56" font-weight="300" fill="#e8e5de" letter-spacing="2">Yantra</text>
  <text x="422" y="235" font-family="'IBM Plex Sans',sans-serif" font-size="18" font-weight="300" fill="rgba(232,229,222,0.45)">The Sacred Memory Machine -- personal AI memory for one human</text>
  <!-- Stats row -->
  <text x="422" y="300" font-family="'IBM Plex Mono',monospace" font-size="13" fill="rgba(232,229,222,0.25)" letter-spacing="1">v2.12</text>
  <text x="480" y="300" font-family="'IBM Plex Mono',monospace" font-size="13" fill="rgba(255,255,255,0.08)">|</text>
  <text x="494" y="300" font-family="'IBM Plex Mono',monospace" font-size="13" fill="rgba(232,229,222,0.25)" letter-spacing="1">MIT + CC0</text>
  <text x="600" y="300" font-family="'IBM Plex Mono',monospace" font-size="13" fill="rgba(255,255,255,0.08)">|</text>
  <text x="614" y="300" font-family="'IBM Plex Mono',monospace" font-size="13" fill="rgba(232,229,222,0.25)" letter-spacing="1">github.com/revanthlevaka/OpenYantra</text>
</svg>
