<svg xmlns="http://www.w3.org/2000/svg" width="512" height="512" viewBox="0 0 512 512" fill="none">
  <defs>
    <linearGradient id="g" x1="0" y1="0" x2="512" y2="512" gradientUnits="userSpaceOnUse">
      <stop offset="0%" stop-color="#1c6fff"/>
      <stop offset="33%" stop-color="#5535e0"/>
      <stop offset="66%" stop-color="#e84520"/>
      <stop offset="100%" stop-color="#f5a000"/>
    </linearGradient>
  </defs>
  <rect width="512" height="512" fill="#0a0a0b"/>
  <!-- Outer ring -->
  <circle cx="256" cy="256" r="240" stroke="url(#g)" stroke-width="4" fill="none"/>
  <!-- Mid ring -->
  <circle cx="256" cy="256" r="168" stroke="url(#g)" stroke-width="2.5" fill="none" opacity="0.5"/>
  <!-- Inner ring -->
  <circle cx="256" cy="256" r="92" stroke="url(#g)" stroke-width="2" fill="none" opacity="0.3"/>
  <!-- Center core -->
  <circle cx="256" cy="256" r="20" fill="url(#g)"/>
  <!-- Axes -->
  <line x1="256" y1="16" x2="256" y2="496" stroke="url(#g)" stroke-width="1.5" opacity="0.2"/>
  <line x1="16" y1="256" x2="496" y2="256" stroke="url(#g)" stroke-width="1.5" opacity="0.2"/>
  <!-- Diagonals -->
  <line x1="74" y1="74" x2="438" y2="438" stroke="url(#g)" stroke-width="1" opacity="0.1"/>
  <line x1="438" y1="74" x2="74" y2="438" stroke="url(#g)" stroke-width="1" opacity="0.1"/>
  <!-- Cardinal nodes -->
  <circle cx="256" cy="16"  r="12" fill="#1c6fff"/>
  <circle cx="496" cy="256" r="12" fill="#5535e0"/>
  <circle cx="256" cy="496" r="12" fill="#e84520"/>
  <circle cx="16"  cy="256" r="12" fill="#f5a000"/>
  <!-- Secondary nodes -->
  <circle cx="256" cy="88"  r="7" fill="#1c6fff" opacity="0.6"/>
  <circle cx="424" cy="256" r="7" fill="#5535e0" opacity="0.6"/>
  <circle cx="256" cy="424" r="7" fill="#e84520" opacity="0.6"/>
  <circle cx="88"  cy="256" r="7" fill="#f5a000" opacity="0.6"/>
  <!-- Petal arcs -->
  <path d="M256 16 Q340 136 256 256 Q172 136 256 16"   stroke="url(#g)" stroke-width="2" fill="none" opacity="0.42"/>
  <path d="M496 256 Q376 340 256 256 Q376 172 496 256" stroke="url(#g)" stroke-width="2" fill="none" opacity="0.42"/>
  <path d="M256 496 Q172 376 256 256 Q340 376 256 496" stroke="url(#g)" stroke-width="2" fill="none" opacity="0.42"/>
  <path d="M16 256 Q136 172 256 256 Q136 340 16 256"   stroke="url(#g)" stroke-width="2" fill="none" opacity="0.42"/>
  <!-- Diagonal petals -->
  <path d="M74 74 Q165 165 256 256 Q128 128 74 74"   stroke="url(#g)" stroke-width="1.2" fill="none" opacity="0.2"/>
  <path d="M438 74 Q347 165 256 256 Q384 128 438 74" stroke="url(#g)" stroke-width="1.2" fill="none" opacity="0.2"/>
  <path d="M438 438 Q347 347 256 256 Q384 384 438 438" stroke="url(#g)" stroke-width="1.2" fill="none" opacity="0.2"/>
  <path d="M74 438 Q165 347 256 256 Q128 384 74 438" stroke="url(#g)" stroke-width="1.2" fill="none" opacity="0.2"/>
</svg>