<svg xmlns="http://www.w3.org/2000/svg" width="800" height="200" viewBox="0 0 800 200" fill="none">
  <defs>
    <linearGradient id="g" x1="0" y1="0" x2="200" y2="200" gradientUnits="userSpaceOnUse">
      <stop offset="0%" stop-color="#1c6fff"/>
      <stop offset="33%" stop-color="#5535e0"/>
      <stop offset="66%" stop-color="#e84520"/>
      <stop offset="100%" stop-color="#f5a000"/>
    </linearGradient>
    <linearGradient id="tg" x1="0" y1="0" x2="1" y2="0">
      <stop offset="0%" stop-color="#1c6fff"/>
      <stop offset="33%" stop-color="#5535e0"/>
      <stop offset="66%" stop-color="#e84520"/>
      <stop offset="100%" stop-color="#f5a000"/>
    </linearGradient>
  </defs>
  <rect width="800" height="200" fill="#0a0a0b"/>
  <!-- Mark centered at 100,100 r=80 -->
  <circle cx="100" cy="100" r="80" stroke="url(#g)" stroke-width="2.5" fill="none"/>
  <circle cx="100" cy="100" r="56" stroke="url(#g)" stroke-width="1.5" fill="none" opacity="0.5"/>
  <circle cx="100" cy="100" r="30" stroke="url(#g)" stroke-width="1" fill="none" opacity="0.3"/>
  <circle cx="100" cy="100" r="7" fill="url(#g)"/>
  <line x1="100" y1="20" x2="100" y2="180" stroke="url(#g)" stroke-width="1" opacity="0.2"/>
  <line x1="20" y1="100" x2="180" y2="100" stroke="url(#g)" stroke-width="1" opacity="0.2"/>
  <circle cx="100" cy="20"  r="5" fill="#1c6fff"/>
  <circle cx="180" cy="100" r="5" fill="#5535e0"/>
  <circle cx="100" cy="180" r="5" fill="#e84520"/>
  <circle cx="20"  cy="100" r="5" fill="#f5a000"/>
  <path d="M100 20 Q130 60 100 100 Q70 60 100 20"   stroke="url(#g)" stroke-width="1.5" fill="none" opacity="0.42"/>
  <path d="M180 100 Q140 130 100 100 Q140 70 180 100" stroke="url(#g)" stroke-width="1.5" fill="none" opacity="0.42"/>
  <path d="M100 180 Q70 140 100 100 Q130 140 100 180" stroke="url(#g)" stroke-width="1.5" fill="none" opacity="0.42"/>
  <path d="M20 100 Q60 70 100 100 Q60 130 20 100"   stroke="url(#g)" stroke-width="1.5" fill="none" opacity="0.42"/>
  <!-- Wordmark -->
  <text x="210" y="112" font-family="'IBM Plex Mono', monospace" font-size="52" font-weight="500" letter-spacing="-1" fill="url(#tg)">Open</text>
  <text x="368" y="112" font-family="'IBM Plex Mono', monospace" font-size="52" font-weight="300" letter-spacing="-1" fill="#e8e5de">Yantra</text>
  <!-- Tagline -->
  <text x="212" y="142" font-family="'IBM Plex Mono', monospace" font-size="13" letter-spacing="3" fill="#524f58">PERSONAL COGNITION LEDGER</text>
</svg>