<svg xmlns="http://www.w3.org/2000/svg" viewBox="0 0 1280 720" width="1280" height="720"><defs>
  <linearGradient id="grad" x1="0" y1="0" x2="1" y2="0">
    <stop offset="0%" stop-color="#1c6fff"/>
    <stop offset="32%" stop-color="#5535e0"/>
    <stop offset="66%" stop-color="#e84520"/>
    <stop offset="100%" stop-color="#f5a000"/>
  </linearGradient>
  <linearGradient id="mG" x1="0" y1="0" x2="100" y2="100" gradientUnits="userSpaceOnUse">
    <stop offset="0%" stop-color="#1c6fff"/>
    <stop offset="33%" stop-color="#5535e0"/>
    <stop offset="66%" stop-color="#e84520"/>
    <stop offset="100%" stop-color="#f5a000"/>
  </linearGradient>
  <pattern id="gp" width="32" height="32" patternUnits="userSpaceOnUse">
    <path d="M32 0L0 0 0 32" fill="none" stroke="rgba(255,255,255,0.017)" stroke-width="1"/>
  </pattern>
  <!-- CANONICAL MARK — exact from brand-manual.html -->
  <g id="mark">
    <circle cx="50" cy="50" r="47" stroke="url(#mG)" stroke-width="1.5" fill="none"/>
    <circle cx="50" cy="50" r="33" stroke="url(#mG)" stroke-width="1" fill="none" opacity="0.5"/>
    <circle cx="50" cy="50" r="18" stroke="url(#mG)" stroke-width="0.8" fill="none" opacity="0.3"/>
    <circle cx="50" cy="50" r="4" fill="url(#mG)"/>
    <line x1="50" y1="3"  x2="50" y2="97" stroke="url(#mG)" stroke-width="0.7" opacity="0.2"/>
    <line x1="3"  y1="50" x2="97" y2="50" stroke="url(#mG)" stroke-width="0.7" opacity="0.2"/>
    <line x1="17" y1="17" x2="83" y2="83" stroke="url(#mG)" stroke-width="0.5" opacity="0.12"/>
    <line x1="83" y1="17" x2="17" y2="83" stroke="url(#mG)" stroke-width="0.5" opacity="0.12"/>
    <circle cx="50" cy="3"  r="3" fill="#1c6fff"/>
    <circle cx="97" cy="50" r="3" fill="#5535e0"/>
    <circle cx="50" cy="97" r="3" fill="#e84520"/>
    <circle cx="3"  cy="50" r="3" fill="#f5a000"/>
    <path d="M50 3 Q68 26 50 50 Q32 26 50 3"   stroke="url(#mG)" stroke-width="0.9" fill="none" opacity="0.45"/>
    <path d="M97 50 Q74 68 50 50 Q74 32 97 50"  stroke="url(#mG)" stroke-width="0.9" fill="none" opacity="0.45"/>
    <path d="M50 97 Q32 74 50 50 Q68 74 50 97"  stroke="url(#mG)" stroke-width="0.9" fill="none" opacity="0.45"/>
    <path d="M3 50 Q26 32 50 50 Q26 68 3 50"    stroke="url(#mG)" stroke-width="0.9" fill="none" opacity="0.45"/>
    <path d="M17 17 Q38 38 50 50 Q29 29 17 17"  stroke="url(#mG)" stroke-width="0.6" fill="none" opacity="0.22"/>
    <path d="M83 17 Q62 38 50 50 Q71 29 83 17"  stroke="url(#mG)" stroke-width="0.6" fill="none" opacity="0.22"/>
    <path d="M83 83 Q62 62 50 50 Q71 71 83 83"  stroke="url(#mG)" stroke-width="0.6" fill="none" opacity="0.22"/>
    <path d="M17 83 Q38 62 50 50 Q29 71 17 83"  stroke="url(#mG)" stroke-width="0.6" fill="none" opacity="0.22"/>
  </g>
</defs><rect width="1280" height="720" fill="#0a0a0b"/><rect width="1280" height="720" fill="url(#gp)"/><rect width="1280" height="38" fill="#111113"/><circle cx="16" cy="19" r="5.5" fill="#ff5f57"/><circle cx="32" cy="19" r="5.5" fill="#febc2e"/><circle cx="48" cy="19" r="5.5" fill="#28c840"/><text x="640" y="24" text-anchor="middle" font-size="11" font-family="monospace" fill="#524f58" letter-spacing="1">localhost:7331 -- OpenYantra v3.0.0</text><defs><linearGradient id="gb5218" x1="0" y1="38" x2="1280" y2="38" gradientUnits="userSpaceOnUse"><stop offset="0%" stop-color="#1c6fff"/><stop offset="32%" stop-color="#5535e0"/><stop offset="66%" stop-color="#e84520"/><stop offset="100%" stop-color="#f5a000"/></linearGradient></defs><rect x="0" y="38" width="1280" height="2" fill="url(#gb5218)"/><defs><linearGradient id="gb5218" x1="0" y1="38" x2="1280" y2="38" gradientUnits="userSpaceOnUse"><stop offset="0%" stop-color="#1c6fff"/><stop offset="32%" stop-color="#5535e0"/><stop offset="66%" stop-color="#e84520"/><stop offset="100%" stop-color="#f5a000"/></linearGradient></defs><rect x="0" y="38" width="1280" height="2" fill="url(#gb5218)"/><rect x="180" y="60" width="920" height="600" fill="#060607" stroke="rgba(255,255,255,0.07)" stroke-width="1"/><rect x="180" y="60" width="920" height="36" fill="#111113"/><circle cx="204" cy="78" r="5.5" fill="#ff5f57"/><circle cx="222" cy="78" r="5.5" fill="#febc2e"/><circle cx="240" cy="78" r="5.5" fill="#28c840"/><text x="640" y="83" font-size="10" font-weight="normal" font-family="monospace" fill="#524f58" text-anchor="middle" letter-spacing="0.5">yantra morning -- zsh</text><defs><linearGradient id="gb955" x1="180" y1="96" x2="1100" y2="96" gradientUnits="userSpaceOnUse"><stop offset="0%" stop-color="#1c6fff"/><stop offset="32%" stop-color="#5535e0"/><stop offset="66%" stop-color="#e84520"/><stop offset="100%" stop-color="#f5a000"/></linearGradient></defs><rect x="180" y="96" width="920" height="2" fill="url(#gb955)"/><text x="210" y="130" font-size="13" font-weight="normal" font-family="monospace" fill="#e84520" text-anchor="start" letter-spacing="0">$</text><text x="228" y="130" font-size="13" font-weight="normal" font-family="monospace" fill="#f5a000" text-anchor="start" letter-spacing="0">yantra</text><text x="305" y="130" font-size="13" font-weight="normal" font-family="monospace" fill="#1c6fff" text-anchor="start" letter-spacing="0">morning</text><text x="210" y="160" font-size="12" font-weight="normal" font-family="monospace" fill="#242228" text-anchor="start" letter-spacing="0">========================================================</text><text x="210" y="180" font-size="12" font-weight="normal" font-family="monospace" fill="#e8e5de" text-anchor="start" letter-spacing="0">  Good morning, Revanth Levaka. OpenYantra v3.0.0</text><text x="210" y="200" font-size="12" font-weight="normal" font-family="monospace" fill="#524f58" text-anchor="start" letter-spacing="0">  2026-03-21</text><text x="210" y="220" font-size="12" font-weight="normal" font-family="monospace" fill="#242228" text-anchor="start" letter-spacing="0">========================================================</text><text x="210" y="260" font-size="12" font-weight="normal" font-family="monospace" fill="#e8e5de" text-anchor="start" letter-spacing="0">  🔓  Open Loops (12 total):</text><text x="210" y="280" font-size="12" font-weight="normal" font-family="monospace" fill="#e84520" text-anchor="start" letter-spacing="0">     [High    ]  Decide screenplay structure          (2d left)</text><text x="210" y="300" font-size="12" font-weight="normal" font-family="monospace" fill="#f5a000" text-anchor="start" letter-spacing="0">     [Medium  ]  Follow up with Priya on budget</text><text x="210" y="320" font-size="12" font-weight="normal" font-family="monospace" fill="#f5a000" text-anchor="start" letter-spacing="0">     [Medium  ]  Add SHA-256 signature tests</text><text x="210" y="360" font-size="12" font-weight="normal" font-family="monospace" fill="#e8e5de" text-anchor="start" letter-spacing="0">  🚀  Stale Projects:</text><text x="210" y="380" font-size="12" font-weight="normal" font-family="monospace" fill="#524f58" text-anchor="start" letter-spacing="0">     Feature Screenplay -- no update in 9 days</text><text x="210" y="400" font-size="12" font-weight="normal" font-family="monospace" fill="#524f58" text-anchor="start" letter-spacing="0">       -> Write act 2</text><text x="210" y="440" font-size="12" font-weight="normal" font-family="monospace" fill="#e8e5de" text-anchor="start" letter-spacing="0">  📥  Inbox: 3 items unrouted</text><text x="210" y="480" font-size="12" font-weight="normal" font-family="monospace" fill="#e8e5de" text-anchor="start" letter-spacing="0">  💡  Suggestion:</text><text x="210" y="500" font-size="12" font-weight="normal" font-family="monospace" fill="#524f58" text-anchor="start" letter-spacing="0">     'budget revision' in Inbox may relate to:</text><text x="210" y="520" font-size="12" font-weight="normal" font-family="monospace" fill="#1c6fff" text-anchor="start" letter-spacing="0">     'Follow up with Priya on budget'</text><text x="210" y="560" font-size="12" font-weight="normal" font-family="monospace" fill="#e8e5de" text-anchor="start" letter-spacing="0">  🕰️   Past memory:</text><text x="210" y="580" font-size="12" font-weight="normal" font-family="monospace" fill="#5535e0" text-anchor="start" letter-spacing="0">     "Creative freedom over short-term money"</text><text x="210" y="620" font-size="12" font-weight="normal" font-family="monospace" fill="#f5a000" text-anchor="start" letter-spacing="0">  🔥  Streak: 3 days</text><text x="210" y="640" font-size="12" font-weight="normal" font-family="monospace" fill="#242228" text-anchor="start" letter-spacing="0">  ────────────────────────────────────────────────────</text><text x="210" y="660" font-size="12" font-weight="normal" font-family="monospace" fill="#524f58" text-anchor="start" letter-spacing="0">  yantra ui -> http://localhost:7331</text><text x="210" y="680" font-size="12" font-weight="normal" font-family="monospace" fill="#242228" text-anchor="start" letter-spacing="0">========================================================</text><text x="210" y="704" font-size="13" font-weight="normal" font-family="monospace" fill="#e84520" text-anchor="start" letter-spacing="0">$</text></svg>