<svg xmlns="http://www.w3.org/2000/svg" viewBox="0 0 1280 800" width="1280" height="800"><defs>
  <linearGradient id="grad" x1="0" y1="0" x2="1" y2="0">
    <stop offset="0%" stop-color="#1c6fff"/>
    <stop offset="32%" stop-color="#5535e0"/>
    <stop offset="66%" stop-color="#e84520"/>
    <stop offset="100%" stop-color="#f5a000"/>
  </linearGradient>
  <linearGradient id="mG" x1="0" y1="0" x2="100" y2="100" gradientUnits="userSpaceOnUse">
    <stop offset="0%" stop-color="#1c6fff"/>
    <stop offset="33%" stop-color="#5535e0"/>
    <stop offset="66%" stop-color="#e84520"/>
    <stop offset="100%" stop-color="#f5a000"/>
  </linearGradient>
  <pattern id="gp" width="32" height="32" patternUnits="userSpaceOnUse">
    <path d="M32 0L0 0 0 32" fill="none" stroke="rgba(255,255,255,0.017)" stroke-width="1"/>
  </pattern>
  <!-- CANONICAL MARK — exact from brand-manual.html -->
  <g id="mark">
    <circle cx="50" cy="50" r="47" stroke="url(#mG)" stroke-width="1.5" fill="none"/>
    <circle cx="50" cy="50" r="33" stroke="url(#mG)" stroke-width="1" fill="none" opacity="0.5"/>
    <circle cx="50" cy="50" r="18" stroke="url(#mG)" stroke-width="0.8" fill="none" opacity="0.3"/>
    <circle cx="50" cy="50" r="4" fill="url(#mG)"/>
    <line x1="50" y1="3"  x2="50" y2="97" stroke="url(#mG)" stroke-width="0.7" opacity="0.2"/>
    <line x1="3"  y1="50" x2="97" y2="50" stroke="url(#mG)" stroke-width="0.7" opacity="0.2"/>
    <line x1="17" y1="17" x2="83" y2="83" stroke="url(#mG)" stroke-width="0.5" opacity="0.12"/>
    <line x1="83" y1="17" x2="17" y2="83" stroke="url(#mG)" stroke-width="0.5" opacity="0.12"/>
    <circle cx="50" cy="3"  r="3" fill="#1c6fff"/>
    <circle cx="97" cy="50" r="3" fill="#5535e0"/>
    <circle cx="50" cy="97" r="3" fill="#e84520"/>
    <circle cx="3"  cy="50" r="3" fill="#f5a000"/>
    <path d="M50 3 Q68 26 50 50 Q32 26 50 3"   stroke="url(#mG)" stroke-width="0.9" fill="none" opacity="0.45"/>
    <path d="M97 50 Q74 68 50 50 Q74 32 97 50"  stroke="url(#mG)" stroke-width="0.9" fill="none" opacity="0.45"/>
    <path d="M50 97 Q32 74 50 50 Q68 74 50 97"  stroke="url(#mG)" stroke-width="0.9" fill="none" opacity="0.45"/>
    <path d="M3 50 Q26 32 50 50 Q26 68 3 50"    stroke="url(#mG)" stroke-width="0.9" fill="none" opacity="0.45"/>
    <path d="M17 17 Q38 38 50 50 Q29 29 17 17"  stroke="url(#mG)" stroke-width="0.6" fill="none" opacity="0.22"/>
    <path d="M83 17 Q62 38 50 50 Q71 29 83 17"  stroke="url(#mG)" stroke-width="0.6" fill="none" opacity="0.22"/>
    <path d="M83 83 Q62 62 50 50 Q71 71 83 83"  stroke="url(#mG)" stroke-width="0.6" fill="none" opacity="0.22"/>
    <path d="M17 83 Q38 62 50 50 Q29 71 17 83"  stroke="url(#mG)" stroke-width="0.6" fill="none" opacity="0.22"/>
  </g>
</defs><rect width="1280" height="800" fill="#0a0a0b"/><rect width="1280" height="800" fill="url(#gp)"/><rect width="1280" height="38" fill="#111113"/><circle cx="16" cy="19" r="5.5" fill="#ff5f57"/><circle cx="32" cy="19" r="5.5" fill="#febc2e"/><circle cx="48" cy="19" r="5.5" fill="#28c840"/><text x="640" y="24" text-anchor="middle" font-size="11" font-family="monospace" fill="#524f58" letter-spacing="1">localhost:7331 -- OpenYantra v3.0.0</text><defs><linearGradient id="gb5218" x1="0" y1="38" x2="1280" y2="38" gradientUnits="userSpaceOnUse"><stop offset="0%" stop-color="#1c6fff"/><stop offset="32%" stop-color="#5535e0"/><stop offset="66%" stop-color="#e84520"/><stop offset="100%" stop-color="#f5a000"/></linearGradient></defs><rect x="0" y="38" width="1280" height="2" fill="url(#gb5218)"/><rect x="0" y="40" width="190" height="760" fill="rgba(9,9,10,0.98)"/>
<rect x="190" y="40" width="1" height="760" fill="rgba(255,255,255,0.07)"/>
<g transform="translate(13.0,55.0) scale(0.22)"><use href="#mark"/></g>
<text x="42" y="63" font-size="11" font-weight="500" font-family="monospace" fill="#e8e5de">OpenYantra</text>
<text x="42" y="75" font-size="8" font-family="monospace" fill="#524f58" letter-spacing="1.5">V3.0.0</text>
<rect x="0" y="86" width="190" height="1" fill="rgba(255,255,255,0.07)"/>
<text x="14" y="102" font-size="11" font-family="monospace" fill="#524f58">🌅 Today</text>
<text x="14" y="124" font-size="11" font-family="monospace" fill="#524f58">📥 Inbox</text>
<text x="14" y="146" font-size="11" font-family="monospace" fill="#524f58">🚀 Projects</text>
<rect x="0" y="154" width="3" height="22" fill="#f5a000"/>
<rect x="0" y="154" width="190" height="22" fill="rgba(255,255,255,0.02)"/>
<text x="14" y="168" font-size="11" font-family="monospace" fill="#e8e5de">🔓 Open Loops</text>
<text x="14" y="190" font-size="11" font-family="monospace" fill="#524f58">✅ Tasks</text>
<text x="14" y="212" font-size="11" font-family="monospace" fill="#524f58">🎯 Goals</text>
<text x="14" y="234" font-size="11" font-family="monospace" fill="#524f58">📅 Timeline</text>
<text x="14" y="256" font-size="11" font-family="monospace" fill="#524f58">⚡ Conflicts</text>
<text x="14" y="278" font-size="11" font-family="monospace" fill="#524f58">🔒 Security</text>
<text x="14" y="300" font-size="11" font-family="monospace" fill="#524f58">📒 Ledger</text>
<text x="14" y="322" font-size="11" font-family="monospace" fill="#524f58">💚 Health</text>
<text x="14" y="344" font-size="11" font-family="monospace" fill="#524f58">📊 Stats</text>
<rect x="0" y="760" width="190" height="40" fill="rgba(9,9,10,0.98)"/>
<rect x="0" y="760" width="190" height="1" fill="rgba(255,255,255,0.07)"/>
<circle cx="18" cy="776" r="3.5" fill="#1aa167"/>
<text x="28" y="779" font-size="9" font-family="monospace" fill="#1aa167">Chitrapat active</text>
<text x="14" y="793" font-size="8" font-family="monospace" fill="#242228">SQLite WAL backend</text><rect x="190" y="40" width="1090" height="44" fill="#111113"/><rect x="190" y="84" width="1090" height="1" fill="rgba(255,255,255,0.07)"/><text x="210" y="67" font-size="13" font-weight="500" font-family="monospace" fill="#e8e5de">🔓 Open Loops (Anishtha)</text><text x="1218" y="67" font-size="10" font-weight="normal" font-family="monospace" fill="#f5a000" text-anchor="end" letter-spacing="0">12 unresolved</text><rect x="190" y="103" width="1090" height="72" fill="rgba(232,69,32,0.04)"/><rect x="190" y="103" width="3" height="72" fill="#e84520"/><rect x="210" y="115" width="44" height="16" rx="3" fill="none" stroke="#e84520" stroke-width="1" opacity="0.5"/><text x="232" y="126" text-anchor="middle" font-size="8" font-family="monospace" fill="#e84520">High</text><text x="268" y="125" font-size="11" font-weight="500" font-family="monospace" fill="#e8e5de" text-anchor="start" letter-spacing="0">Decide screenplay structure</text><text x="268" y="143" font-size="9" font-weight="normal" font-family="monospace" fill="#524f58" text-anchor="start" letter-spacing="0">3-act vs 5-act -- still undecided. 14 days open.</text><text x="268" y="159" font-size="8" font-weight="normal" font-family="monospace" fill="#e84520" text-anchor="start" letter-spacing="0">⚠ TTL: 2 days remaining</text><rect x="1060" y="115" width="70" height="20" fill="rgba(26,161,103,0.1)" stroke="rgba(26,161,103,0.3)"/><text x="1095" y="129" font-size="8" font-weight="normal" font-family="monospace" fill="#1aa167" text-anchor="middle" letter-spacing="0">Resolve</text><rect x="190" y="175" width="1090" height="1" fill="rgba(255,255,255,0.04)"/><rect x="190" y="176" width="1090" height="72" fill="#111113"/><rect x="190" y="176" width="3" height="72" fill="#f5a000"/><rect x="210" y="188" width="54" height="16" rx="3" fill="none" stroke="#f5a000" stroke-width="1" opacity="0.5"/><text x="237" y="199" text-anchor="middle" font-size="8" font-family="monospace" fill="#f5a000">Medium</text><text x="278" y="198" font-size="11" font-weight="500" font-family="monospace" fill="#e8e5de" text-anchor="start" letter-spacing="0">Follow up with Priya on budget</text><text x="278" y="216" font-size="9" font-weight="normal" font-family="monospace" fill="#524f58" text-anchor="start" letter-spacing="0">Budget revision needed, mentioned 5 days ago.</text><text x="278" y="232" font-size="8" font-weight="normal" font-family="monospace" fill="#524f58" text-anchor="start" letter-spacing="0">TTL: 25 days remaining</text><rect x="1060" y="188" width="70" height="20" fill="rgba(26,161,103,0.1)" stroke="rgba(26,161,103,0.3)"/><text x="1095" y="202" font-size="8" font-weight="normal" font-family="monospace" fill="#1aa167" text-anchor="middle" letter-spacing="0">Resolve</text><rect x="190" y="248" width="1090" height="1" fill="rgba(255,255,255,0.04)"/><rect x="190" y="249" width="1090" height="72" fill="#111113"/><rect x="190" y="249" width="3" height="72" fill="#5535e0"/><rect x="210" y="261" width="54" height="16" rx="3" fill="none" stroke="#5535e0" stroke-width="1" opacity="0.5"/><text x="237" y="272" text-anchor="middle" font-size="8" font-family="monospace" fill="#5535e0">Medium</text><text x="278" y="271" font-size="11" font-weight="500" font-family="monospace" fill="#e8e5de" text-anchor="start" letter-spacing="0">Add SHA-256 signature tests</text><text x="278" y="289" font-size="9" font-weight="normal" font-family="monospace" fill="#524f58" text-anchor="start" letter-spacing="0">VidyaKosha and Agrasandhani verification untested.</text><text x="278" y="305" font-size="8" font-weight="normal" font-family="monospace" fill="#524f58" text-anchor="start" letter-spacing="0">TTL: 60 days remaining</text><rect x="1060" y="261" width="70" height="20" fill="rgba(26,161,103,0.1)" stroke="rgba(26,161,103,0.3)"/><text x="1095" y="275" font-size="8" font-weight="normal" font-family="monospace" fill="#1aa167" text-anchor="middle" letter-spacing="0">Resolve</text><rect x="190" y="321" width="1090" height="1" fill="rgba(255,255,255,0.04)"/><rect x="190" y="322" width="1090" height="72" fill="#111113"/><rect x="190" y="322" width="3" height="72" fill="#1c6fff"/><rect x="210" y="334" width="44" height="16" rx="3" fill="none" stroke="#1c6fff" stroke-width="1" opacity="0.5"/><text x="232" y="345" text-anchor="middle" font-size="8" font-family="monospace" fill="#1c6fff">Low</text><text x="268" y="344" font-size="11" font-weight="500" font-family="monospace" fill="#e8e5de" text-anchor="start" letter-spacing="0">Review AgentConfig schema for v3.1</text><text x="268" y="362" font-size="9" font-weight="normal" font-family="monospace" fill="#524f58" text-anchor="start" letter-spacing="0">Niyama sheet may need new fields for SQLite mode.</text><text x="268" y="378" font-size="8" font-weight="normal" font-family="monospace" fill="#524f58" text-anchor="start" letter-spacing="0">TTL: 90 days remaining</text><rect x="1060" y="334" width="70" height="20" fill="rgba(26,161,103,0.1)" stroke="rgba(26,161,103,0.3)"/><text x="1095" y="348" font-size="8" font-weight="normal" font-family="monospace" fill="#1aa167" text-anchor="middle" letter-spacing="0">Resolve</text><rect x="190" y="394" width="1090" height="1" fill="rgba(255,255,255,0.04)"/><rect x="190" y="395" width="1090" height="72" fill="#111113"/><rect x="190" y="395" width="3" height="72" fill="#242228"/><rect x="210" y="407" width="44" height="16" rx="3" fill="none" stroke="#242228" stroke-width="1" opacity="0.5"/><text x="232" y="418" text-anchor="middle" font-size="8" font-family="monospace" fill="#242228">Low</text><text x="268" y="417" font-size="11" font-weight="500" font-family="monospace" fill="#e8e5de" text-anchor="start" letter-spacing="0">Explore sentence-transformers</text><text x="268" y="435" font-size="9" font-weight="normal" font-family="monospace" fill="#524f58" text-anchor="start" letter-spacing="0">Optional dense embeddings planned for v3.1.</text><text x="268" y="451" font-size="8" font-weight="normal" font-family="monospace" fill="#524f58" text-anchor="start" letter-spacing="0">TTL: 90 days remaining</text><rect x="1060" y="407" width="70" height="20" fill="rgba(26,161,103,0.1)" stroke="rgba(26,161,103,0.3)"/><text x="1095" y="421" font-size="8" font-weight="normal" font-family="monospace" fill="#1aa167" text-anchor="middle" letter-spacing="0">Resolve</text><rect x="190" y="467" width="1090" height="1" fill="rgba(255,255,255,0.04)"/><rect x="210" y="478" width="1050" height="160" fill="#111113" stroke="rgba(255,255,255,0.07)" stroke-width="1"/><defs><linearGradient id="gb5317" x1="210" y1="478" x2="1260" y2="478" gradientUnits="userSpaceOnUse"><stop offset="0%" stop-color="#1c6fff"/><stop offset="32%" stop-color="#5535e0"/><stop offset="66%" stop-color="#e84520"/><stop offset="100%" stop-color="#f5a000"/></linearGradient></defs><rect x="210" y="478" width="1050" height="2" fill="url(#gb5317)"/><text x="228" y="500" font-size="9" font-family="monospace" fill="#524f58" letter-spacing="1.5">TTL URGENCY OVERVIEW</text><text x="228" y="528" font-size="8" font-weight="normal" font-family="monospace" fill="#e84520" text-anchor="start" letter-spacing="0">Expiring &lt;7 days</text><rect x="400" y="516" width="30" height="14" fill="#e84520" opacity="0.7"/><text x="438" y="528" font-size="10" font-weight="normal" font-family="monospace" fill="#e8e5de" text-anchor="start" letter-spacing="0">3</text><text x="228" y="564" font-size="8" font-weight="normal" font-family="monospace" fill="#f5a000" text-anchor="start" letter-spacing="0">Expiring 7-30 days</text><rect x="400" y="552" width="60" height="14" fill="#f5a000" opacity="0.7"/><text x="468" y="564" font-size="10" font-weight="normal" font-family="monospace" fill="#e8e5de" text-anchor="start" letter-spacing="0">5</text><text x="228" y="600" font-size="8" font-weight="normal" font-family="monospace" fill="#1c6fff" text-anchor="start" letter-spacing="0">Expiring 30+ days</text><rect x="400" y="588" width="40" height="14" fill="#1c6fff" opacity="0.7"/><text x="448" y="600" font-size="10" font-weight="normal" font-family="monospace" fill="#e8e5de" text-anchor="start" letter-spacing="0">4</text></svg>