<svg xmlns="http://www.w3.org/2000/svg" viewBox="0 0 1280 800" width="1280" height="800"><defs>
  <linearGradient id="grad" x1="0" y1="0" x2="1" y2="0">
    <stop offset="0%" stop-color="#1c6fff"/>
    <stop offset="32%" stop-color="#5535e0"/>
    <stop offset="66%" stop-color="#e84520"/>
    <stop offset="100%" stop-color="#f5a000"/>
  </linearGradient>
  <linearGradient id="mG" x1="0" y1="0" x2="100" y2="100" gradientUnits="userSpaceOnUse">
    <stop offset="0%" stop-color="#1c6fff"/>
    <stop offset="33%" stop-color="#5535e0"/>
    <stop offset="66%" stop-color="#e84520"/>
    <stop offset="100%" stop-color="#f5a000"/>
  </linearGradient>
  <pattern id="gp" width="32" height="32" patternUnits="userSpaceOnUse">
    <path d="M32 0L0 0 0 32" fill="none" stroke="rgba(255,255,255,0.017)" stroke-width="1"/>
  </pattern>
  <!-- CANONICAL MARK — exact from brand-manual.html -->
  <g id="mark">
    <circle cx="50" cy="50" r="47" stroke="url(#mG)" stroke-width="1.5" fill="none"/>
    <circle cx="50" cy="50" r="33" stroke="url(#mG)" stroke-width="1" fill="none" opacity="0.5"/>
    <circle cx="50" cy="50" r="18" stroke="url(#mG)" stroke-width="0.8" fill="none" opacity="0.3"/>
    <circle cx="50" cy="50" r="4" fill="url(#mG)"/>
    <line x1="50" y1="3"  x2="50" y2="97" stroke="url(#mG)" stroke-width="0.7" opacity="0.2"/>
    <line x1="3"  y1="50" x2="97" y2="50" stroke="url(#mG)" stroke-width="0.7" opacity="0.2"/>
    <line x1="17" y1="17" x2="83" y2="83" stroke="url(#mG)" stroke-width="0.5" opacity="0.12"/>
    <line x1="83" y1="17" x2="17" y2="83" stroke="url(#mG)" stroke-width="0.5" opacity="0.12"/>
    <circle cx="50" cy="3"  r="3" fill="#1c6fff"/>
    <circle cx="97" cy="50" r="3" fill="#5535e0"/>
    <circle cx="50" cy="97" r="3" fill="#e84520"/>
    <circle cx="3"  cy="50" r="3" fill="#f5a000"/>
    <path d="M50 3 Q68 26 50 50 Q32 26 50 3"   stroke="url(#mG)" stroke-width="0.9" fill="none" opacity="0.45"/>
    <path d="M97 50 Q74 68 50 50 Q74 32 97 50"  stroke="url(#mG)" stroke-width="0.9" fill="none" opacity="0.45"/>
    <path d="M50 97 Q32 74 50 50 Q68 74 50 97"  stroke="url(#mG)" stroke-width="0.9" fill="none" opacity="0.45"/>
    <path d="M3 50 Q26 32 50 50 Q26 68 3 50"    stroke="url(#mG)" stroke-width="0.9" fill="none" opacity="0.45"/>
    <path d="M17 17 Q38 38 50 50 Q29 29 17 17"  stroke="url(#mG)" stroke-width="0.6" fill="none" opacity="0.22"/>
    <path d="M83 17 Q62 38 50 50 Q71 29 83 17"  stroke="url(#mG)" stroke-width="0.6" fill="none" opacity="0.22"/>
    <path d="M83 83 Q62 62 50 50 Q71 71 83 83"  stroke="url(#mG)" stroke-width="0.6" fill="none" opacity="0.22"/>
    <path d="M17 83 Q38 62 50 50 Q29 71 17 83"  stroke="url(#mG)" stroke-width="0.6" fill="none" opacity="0.22"/>
  </g>
</defs><rect width="1280" height="800" fill="#0a0a0b"/><rect width="1280" height="800" fill="url(#gp)"/><rect width="1280" height="38" fill="#111113"/><circle cx="16" cy="19" r="5.5" fill="#ff5f57"/><circle cx="32" cy="19" r="5.5" fill="#febc2e"/><circle cx="48" cy="19" r="5.5" fill="#28c840"/><text x="640" y="24" text-anchor="middle" font-size="11" font-family="monospace" fill="#524f58" letter-spacing="1">localhost:7331 -- OpenYantra v3.0.0</text><defs><linearGradient id="gb5218" x1="0" y1="38" x2="1280" y2="38" gradientUnits="userSpaceOnUse"><stop offset="0%" stop-color="#1c6fff"/><stop offset="32%" stop-color="#5535e0"/><stop offset="66%" stop-color="#e84520"/><stop offset="100%" stop-color="#f5a000"/></linearGradient></defs><rect x="0" y="38" width="1280" height="2" fill="url(#gb5218)"/><rect x="0" y="40" width="190" height="760" fill="rgba(9,9,10,0.98)"/>
<rect x="190" y="40" width="1" height="760" fill="rgba(255,255,255,0.07)"/>
<g transform="translate(13.0,55.0) scale(0.22)"><use href="#mark"/></g>
<text x="42" y="63" font-size="11" font-weight="500" font-family="monospace" fill="#e8e5de">OpenYantra</text>
<text x="42" y="75" font-size="8" font-family="monospace" fill="#524f58" letter-spacing="1.5">V3.0.0</text>
<rect x="0" y="86" width="190" height="1" fill="rgba(255,255,255,0.07)"/>
<rect x="0" y="88" width="3" height="22" fill="#f5a000"/>
<rect x="0" y="88" width="190" height="22" fill="rgba(255,255,255,0.02)"/>
<text x="14" y="102" font-size="11" font-family="monospace" fill="#e8e5de">🌅 Today</text>
<text x="14" y="124" font-size="11" font-family="monospace" fill="#524f58">📥 Inbox</text>
<text x="14" y="146" font-size="11" font-family="monospace" fill="#524f58">🚀 Projects</text>
<text x="14" y="168" font-size="11" font-family="monospace" fill="#524f58">🔓 Open Loops</text>
<text x="14" y="190" font-size="11" font-family="monospace" fill="#524f58">✅ Tasks</text>
<text x="14" y="212" font-size="11" font-family="monospace" fill="#524f58">🎯 Goals</text>
<text x="14" y="234" font-size="11" font-family="monospace" fill="#524f58">📅 Timeline</text>
<text x="14" y="256" font-size="11" font-family="monospace" fill="#524f58">⚡ Conflicts</text>
<text x="14" y="278" font-size="11" font-family="monospace" fill="#524f58">🔒 Security</text>
<text x="14" y="300" font-size="11" font-family="monospace" fill="#524f58">📒 Ledger</text>
<text x="14" y="322" font-size="11" font-family="monospace" fill="#524f58">💚 Health</text>
<text x="14" y="344" font-size="11" font-family="monospace" fill="#524f58">📊 Stats</text>
<rect x="0" y="760" width="190" height="40" fill="rgba(9,9,10,0.98)"/>
<rect x="0" y="760" width="190" height="1" fill="rgba(255,255,255,0.07)"/>
<circle cx="18" cy="776" r="3.5" fill="#1aa167"/>
<text x="28" y="779" font-size="9" font-family="monospace" fill="#1aa167">Chitrapat active</text>
<text x="14" y="793" font-size="8" font-family="monospace" fill="#242228">SQLite WAL backend</text><rect x="190" y="40" width="1090" height="44" fill="#111113"/><rect x="190" y="84" width="1090" height="1" fill="rgba(255,255,255,0.07)"/><text x="210" y="67" font-size="13" font-weight="500" font-family="monospace" fill="#e8e5de">🌅 Today -- OpenYantra Dashboard</text><rect x="190" y="85" width="218" height="52" fill="#111113"/>
<text x="210" y="108" font-size="22" font-weight="300" font-family="monospace" fill="#1c6fff">247</text>
<text x="210" y="126" font-size="8" font-family="monospace" fill="#524f58" letter-spacing="1">RECORDS</text>
<rect x="408" y="85" width="218" height="52" fill="#111113"/>
<text x="428" y="108" font-size="22" font-weight="300" font-family="monospace" fill="#f5a000">12</text>
<text x="428" y="126" font-size="8" font-family="monospace" fill="#524f58" letter-spacing="1">OPEN LOOPS</text>
<rect x="408" y="85" width="1" height="52" fill="rgba(255,255,255,0.07)"/>
<rect x="626" y="85" width="218" height="52" fill="#111113"/>
<text x="646" y="108" font-size="22" font-weight="300" font-family="monospace" fill="#e84520">3</text>
<text x="646" y="126" font-size="8" font-family="monospace" fill="#524f58" letter-spacing="1">INBOX</text>
<rect x="626" y="85" width="1" height="52" fill="rgba(255,255,255,0.07)"/>
<rect x="844" y="85" width="218" height="52" fill="#111113"/>
<text x="864" y="108" font-size="22" font-weight="300" font-family="monospace" fill="#1aa167">OK</text>
<text x="864" y="126" font-size="8" font-family="monospace" fill="#524f58" letter-spacing="1">HEALTH</text>
<rect x="844" y="85" width="1" height="52" fill="rgba(255,255,255,0.07)"/>
<rect x="1062" y="85" width="218" height="52" fill="#111113"/>
<text x="1082" y="108" font-size="22" font-weight="300" font-family="monospace" fill="#5535e0">2ms</text>
<text x="1082" y="126" font-size="8" font-family="monospace" fill="#524f58" letter-spacing="1">WRITE</text>
<rect x="1062" y="85" width="1" height="52" fill="rgba(255,255,255,0.07)"/>
<rect x="190" y="137" width="1090" height="1" fill="rgba(255,255,255,0.07)"/><defs><linearGradient id="gb2683" x1="210" y1="153" x2="1260" y2="153" gradientUnits="userSpaceOnUse"><stop offset="0%" stop-color="#1c6fff"/><stop offset="32%" stop-color="#5535e0"/><stop offset="66%" stop-color="#e84520"/><stop offset="100%" stop-color="#f5a000"/></linearGradient></defs><rect x="210" y="153" width="1050" height="2" fill="url(#gb2683)"/><rect x="210" y="153" width="1050" height="74" fill="rgba(28,111,255,0.05)" stroke="rgba(28,111,255,0.18)" stroke-width="1"/><text x="228" y="173" font-size="8" font-weight="normal" font-family="monospace" fill="#1c6fff" text-anchor="start" letter-spacing="2">🔥 DAILY INSIGHT -- 3 DAY STREAK</text><text x="228" y="193" font-size="11" font-weight="500" font-family="monospace" fill="#e8e5de" text-anchor="start" letter-spacing="0">3 loops need attention  ·  Stale: Feature Screenplay (9 days)</text><rect x="228" y="203" width="44" height="16" rx="3" fill="none" stroke="#e84520" stroke-width="1" opacity="0.5"/><text x="250" y="214" text-anchor="middle" font-size="8" font-family="monospace" fill="#e84520">High</text><text x="282" y="215" font-size="9" font-weight="normal" font-family="monospace" fill="#e8e5de" text-anchor="start" letter-spacing="0">Decide screenplay structure</text><text x="580" y="215" font-size="9" font-weight="normal" font-family="monospace" fill="#e84520" text-anchor="start" letter-spacing="0">2d left</text><rect x="210" y="243" width="250" height="250" fill="#111113" stroke="rgba(255,255,255,0.07)" stroke-width="1"/><defs><linearGradient id="gb5958" x1="210" y1="243" x2="460" y2="243" gradientUnits="userSpaceOnUse"><stop offset="0%" stop-color="#1c6fff"/><stop offset="32%" stop-color="#5535e0"/><stop offset="66%" stop-color="#e84520"/><stop offset="100%" stop-color="#f5a000"/></linearGradient></defs><rect x="210" y="243" width="250" height="2" fill="url(#gb5958)"/><text x="228" y="265" font-size="9" font-family="monospace" fill="#524f58" letter-spacing="1.5">MEMORY DISTRIBUTION</text><rect x="474" y="243" width="250" height="250" fill="#111113" stroke="rgba(255,255,255,0.07)" stroke-width="1"/><defs><linearGradient id="gb682" x1="474" y1="243" x2="724" y2="243" gradientUnits="userSpaceOnUse"><stop offset="0%" stop-color="#1c6fff"/><stop offset="32%" stop-color="#5535e0"/><stop offset="66%" stop-color="#e84520"/><stop offset="100%" stop-color="#f5a000"/></linearGradient></defs><rect x="474" y="243" width="250" height="2" fill="url(#gb682)"/><text x="492" y="265" font-size="9" font-family="monospace" fill="#524f58" letter-spacing="1.5">URGENT LOOPS</text><rect x="738" y="243" width="250" height="250" fill="#111113" stroke="rgba(255,255,255,0.07)" stroke-width="1"/><defs><linearGradient id="gb4768" x1="738" y1="243" x2="988" y2="243" gradientUnits="userSpaceOnUse"><stop offset="0%" stop-color="#1c6fff"/><stop offset="32%" stop-color="#5535e0"/><stop offset="66%" stop-color="#e84520"/><stop offset="100%" stop-color="#f5a000"/></linearGradient></defs><rect x="738" y="243" width="250" height="2" fill="url(#gb4768)"/><text x="756" y="265" font-size="9" font-family="monospace" fill="#524f58" letter-spacing="1.5">ACTIVE PROJECTS</text><rect x="1002" y="243" width="258" height="250" fill="#111113" stroke="rgba(255,255,255,0.07)" stroke-width="1"/><defs><linearGradient id="gb5373" x1="1002" y1="243" x2="1260" y2="243" gradientUnits="userSpaceOnUse"><stop offset="0%" stop-color="#1c6fff"/><stop offset="32%" stop-color="#5535e0"/><stop offset="66%" stop-color="#e84520"/><stop offset="100%" stop-color="#f5a000"/></linearGradient></defs><rect x="1002" y="243" width="258" height="2" fill="url(#gb5373)"/><text x="1020" y="265" font-size="9" font-family="monospace" fill="#524f58" letter-spacing="1.5">SYSTEM STATUS</text><text x="218" y="286" font-size="8" font-weight="normal" font-family="monospace" fill="#524f58" text-anchor="start" letter-spacing="0">Episodic</text><rect x="280" y="277" width="162" height="3" fill="#242228"/><defs><linearGradient id="wbar0" x1="280" y1="0" x2="442" y2="0" gradientUnits="userSpaceOnUse"><stop offset="0%" stop-color="#1c6fff"/><stop offset="100%" stop-color="#5535e0"/></linearGradient></defs><rect x="280" y="277" width="119" height="3" fill="url(#wbar0)"/><text x="218" y="312" font-size="8" font-weight="normal" font-family="monospace" fill="#524f58" text-anchor="start" letter-spacing="0">Semantic</text><rect x="280" y="303" width="162" height="3" fill="#242228"/><defs><linearGradient id="wbar1" x1="280" y1="0" x2="442" y2="0" gradientUnits="userSpaceOnUse"><stop offset="0%" stop-color="#5535e0"/><stop offset="100%" stop-color="#e84520"/></linearGradient></defs><rect x="280" y="303" width="82" height="3" fill="url(#wbar1)"/><text x="218" y="338" font-size="8" font-weight="normal" font-family="monospace" fill="#524f58" text-anchor="start" letter-spacing="0">Prospective</text><rect x="280" y="329" width="162" height="3" fill="#242228"/><defs><linearGradient id="wbar2" x1="280" y1="0" x2="442" y2="0" gradientUnits="userSpaceOnUse"><stop offset="0%" stop-color="#e84520"/><stop offset="100%" stop-color="#f5a000"/></linearGradient></defs><rect x="280" y="329" width="102" height="3" fill="url(#wbar2)"/><text x="218" y="364" font-size="8" font-weight="normal" font-family="monospace" fill="#524f58" text-anchor="start" letter-spacing="0">Beliefs</text><rect x="280" y="355" width="162" height="3" fill="#242228"/><defs><linearGradient id="wbar3" x1="280" y1="0" x2="442" y2="0" gradientUnits="userSpaceOnUse"><stop offset="0%" stop-color="#1c6fff"/><stop offset="100%" stop-color="#1aa167"/></linearGradient></defs><rect x="280" y="355" width="61" height="3" fill="url(#wbar3)"/><rect x="474" y="278" width="3" height="38" fill="#e84520"/><text x="488" y="292" font-size="8" font-weight="normal" font-family="monospace" fill="#e84520" text-anchor="start" letter-spacing="0">High</text><text x="488" y="306" font-size="9" font-weight="500" font-family="monospace" fill="#e8e5de" text-anchor="start" letter-spacing="0">Decide screenplay</text><rect x="474" y="320" width="3" height="38" fill="#f5a000"/><text x="488" y="334" font-size="8" font-weight="normal" font-family="monospace" fill="#f5a000" text-anchor="start" letter-spacing="0">Medium</text><text x="488" y="348" font-size="9" font-weight="500" font-family="monospace" fill="#e8e5de" text-anchor="start" letter-spacing="0">Follow up Priya</text><rect x="474" y="362" width="3" height="38" fill="#5535e0"/><text x="488" y="376" font-size="8" font-weight="normal" font-family="monospace" fill="#5535e0" text-anchor="start" letter-spacing="0">Medium</text><text x="488" y="390" font-size="9" font-weight="500" font-family="monospace" fill="#e8e5de" text-anchor="start" letter-spacing="0">SHA-256 tests</text><rect x="474" y="404" width="3" height="38" fill="#242228"/><text x="488" y="418" font-size="8" font-weight="normal" font-family="monospace" fill="#242228" text-anchor="start" letter-spacing="0">Low</text><text x="488" y="432" font-size="9" font-weight="500" font-family="monospace" fill="#e8e5de" text-anchor="start" letter-spacing="0">+9 more loops</text><text x="748" y="278" font-size="10" font-weight="500" font-family="monospace" fill="#e8e5de" text-anchor="start" letter-spacing="0">Feature Screenplay</text><text x="748" y="296" font-size="9" font-weight="normal" font-family="monospace" fill="#524f58" text-anchor="start" letter-spacing="0">Next: Write act 2</text><text x="748" y="312" font-size="8" font-weight="normal" font-family="monospace" fill="#e84520" text-anchor="start" letter-spacing="0">9 days stale</text><text x="748" y="358" font-size="10" font-weight="500" font-family="monospace" fill="#e8e5de" text-anchor="start" letter-spacing="0">OY v3 Docs</text><text x="748" y="376" font-size="9" font-weight="normal" font-family="monospace" fill="#524f58" text-anchor="start" letter-spacing="0">Next: DEPLOYMENT.md</text><text x="1018" y="278" font-size="9" font-weight="normal" font-family="monospace" fill="#524f58" text-anchor="start" letter-spacing="0">SQLite WAL:</text><text x="1098" y="278" font-size="9" font-weight="normal" font-family="monospace" fill="#1aa167" text-anchor="start" letter-spacing="0">OK · 2ms</text><text x="1018" y="300" font-size="9" font-weight="normal" font-family="monospace" fill="#524f58" text-anchor="start" letter-spacing="0">Ledger:</text><text x="1098" y="300" font-size="9" font-weight="normal" font-family="monospace" fill="#e8e5de" text-anchor="start" letter-spacing="0">489 entries</text><text x="1018" y="322" font-size="9" font-weight="normal" font-family="monospace" fill="#524f58" text-anchor="start" letter-spacing="0">Signatures:</text><text x="1098" y="322" font-size="9" font-weight="normal" font-family="monospace" fill="#1aa167" text-anchor="start" letter-spacing="0">valid</text><text x="1018" y="344" font-size="9" font-weight="normal" font-family="monospace" fill="#524f58" text-anchor="start" letter-spacing="0">Streak:</text><text x="1098" y="344" font-size="9" font-weight="normal" font-family="monospace" fill="#f5a000" text-anchor="start" letter-spacing="0">3 days</text><text x="1018" y="366" font-size="9" font-weight="normal" font-family="monospace" fill="#524f58" text-anchor="start" letter-spacing="0">Last write:</text><text x="1098" y="366" font-size="9" font-weight="normal" font-family="monospace" fill="#e8e5de" text-anchor="start" letter-spacing="0">4m ago</text><rect x="210" y="510" width="510" height="262" fill="#111113" stroke="rgba(255,255,255,0.07)" stroke-width="1"/><defs><linearGradient id="gb405" x1="210" y1="510" x2="720" y2="510" gradientUnits="userSpaceOnUse"><stop offset="0%" stop-color="#1c6fff"/><stop offset="32%" stop-color="#5535e0"/><stop offset="66%" stop-color="#e84520"/><stop offset="100%" stop-color="#f5a000"/></linearGradient></defs><rect x="210" y="510" width="510" height="2" fill="url(#gb405)"/><text x="228" y="532" font-size="9" font-family="monospace" fill="#524f58" letter-spacing="1.5">RECENT ACTIVITY</text><text x="228" y="545" font-size="10" font-weight="normal" font-family="monospace" fill="#e8e5de" text-anchor="start" letter-spacing="0">· add · Projects · v3 Docs</text><text x="698" y="545" font-size="8" font-weight="normal" font-family="monospace" fill="#524f58" text-anchor="end" letter-spacing="0">09:41</text><rect x="210" y="553" width="510" height="1" fill="rgba(255,255,255,0.04)"/><text x="228" y="585" font-size="10" font-weight="normal" font-family="monospace" fill="#e8e5de" text-anchor="start" letter-spacing="0">· inbox · Inbox · Budget by Friday</text><text x="698" y="585" font-size="8" font-weight="normal" font-family="monospace" fill="#524f58" text-anchor="end" letter-spacing="0">09:38</text><rect x="210" y="593" width="510" height="1" fill="rgba(255,255,255,0.04)"/><text x="228" y="625" font-size="10" font-weight="normal" font-family="monospace" fill="#e8e5de" text-anchor="start" letter-spacing="0">· resolve · Open Loops · portalocker</text><text x="698" y="625" font-size="8" font-weight="normal" font-family="monospace" fill="#524f58" text-anchor="end" letter-spacing="0">09:22</text><rect x="210" y="633" width="510" height="1" fill="rgba(255,255,255,0.04)"/><text x="228" y="665" font-size="10" font-weight="normal" font-family="monospace" fill="#e8e5de" text-anchor="start" letter-spacing="0">· add · Open Loops · SHA-256 tests</text><text x="698" y="665" font-size="8" font-weight="normal" font-family="monospace" fill="#524f58" text-anchor="end" letter-spacing="0">09:18</text><rect x="210" y="673" width="510" height="1" fill="rgba(255,255,255,0.04)"/><rect x="740" y="510" width="520" height="262" fill="#111113" stroke="rgba(255,255,255,0.07)" stroke-width="1"/><defs><linearGradient id="gb9115" x1="740" y1="510" x2="1260" y2="510" gradientUnits="userSpaceOnUse"><stop offset="0%" stop-color="#1c6fff"/><stop offset="32%" stop-color="#5535e0"/><stop offset="66%" stop-color="#e84520"/><stop offset="100%" stop-color="#f5a000"/></linearGradient></defs><rect x="740" y="510" width="520" height="2" fill="url(#gb9115)"/><text x="758" y="532" font-size="9" font-family="monospace" fill="#524f58" letter-spacing="1.5">INBOX PENDING ROUTE</text><text x="758" y="545" font-size="10" font-weight="normal" font-family="monospace" fill="#e8e5de" text-anchor="start" letter-spacing="0">Priya confirmed budget revision by Friday</text><text x="758" y="561" font-size="8" font-weight="normal" font-family="monospace" fill="#524f58" text-anchor="start" letter-spacing="0">4 minutes ago</text><rect x="740" y="573" width="520" height="1" fill="rgba(255,255,255,0.04)"/><text x="758" y="605" font-size="10" font-weight="normal" font-family="monospace" fill="#e8e5de" text-anchor="start" letter-spacing="0">Check FAISS index at 5000 rows</text><text x="758" y="621" font-size="8" font-weight="normal" font-family="monospace" fill="#524f58" text-anchor="start" letter-spacing="0">2 hours ago</text><rect x="740" y="633" width="520" height="1" fill="rgba(255,255,255,0.04)"/><text x="758" y="665" font-size="10" font-weight="normal" font-family="monospace" fill="#e8e5de" text-anchor="start" letter-spacing="0">Hyderabad session meeting notes</text><text x="758" y="681" font-size="8" font-weight="normal" font-family="monospace" fill="#524f58" text-anchor="start" letter-spacing="0">Yesterday</text><rect x="740" y="693" width="520" height="1" fill="rgba(255,255,255,0.04)"/><defs><linearGradient id="gb752" x1="1140" y1="740" x2="1240" y2="740" gradientUnits="userSpaceOnUse"><stop offset="0%" stop-color="#1c6fff"/><stop offset="32%" stop-color="#5535e0"/><stop offset="66%" stop-color="#e84520"/><stop offset="100%" stop-color="#f5a000"/></linearGradient></defs><rect x="1140" y="740" width="100" height="22" fill="url(#gb752)"/><text x="1190" y="754" font-size="9" font-weight="normal" font-family="monospace" fill="#fff" text-anchor="middle" letter-spacing="1">ROUTE ALL</text></svg>