<svg xmlns="http://www.w3.org/2000/svg" viewBox="0 0 1280 800" width="1280" height="800"><defs>
  <linearGradient id="grad" x1="0" y1="0" x2="1" y2="0">
    <stop offset="0%" stop-color="#1c6fff"/>
    <stop offset="32%" stop-color="#5535e0"/>
    <stop offset="66%" stop-color="#e84520"/>
    <stop offset="100%" stop-color="#f5a000"/>
  </linearGradient>
  <linearGradient id="mG" x1="0" y1="0" x2="100" y2="100" gradientUnits="userSpaceOnUse">
    <stop offset="0%" stop-color="#1c6fff"/>
    <stop offset="33%" stop-color="#5535e0"/>
    <stop offset="66%" stop-color="#e84520"/>
    <stop offset="100%" stop-color="#f5a000"/>
  </linearGradient>
  <pattern id="gp" width="32" height="32" patternUnits="userSpaceOnUse">
    <path d="M32 0L0 0 0 32" fill="none" stroke="rgba(255,255,255,0.017)" stroke-width="1"/>
  </pattern>
  <!-- CANONICAL MARK — exact from brand-manual.html -->
  <g id="mark">
    <circle cx="50" cy="50" r="47" stroke="url(#mG)" stroke-width="1.5" fill="none"/>
    <circle cx="50" cy="50" r="33" stroke="url(#mG)" stroke-width="1" fill="none" opacity="0.5"/>
    <circle cx="50" cy="50" r="18" stroke="url(#mG)" stroke-width="0.8" fill="none" opacity="0.3"/>
    <circle cx="50" cy="50" r="4" fill="url(#mG)"/>
    <line x1="50" y1="3"  x2="50" y2="97" stroke="url(#mG)" stroke-width="0.7" opacity="0.2"/>
    <line x1="3"  y1="50" x2="97" y2="50" stroke="url(#mG)" stroke-width="0.7" opacity="0.2"/>
    <line x1="17" y1="17" x2="83" y2="83" stroke="url(#mG)" stroke-width="0.5" opacity="0.12"/>
    <line x1="83" y1="17" x2="17" y2="83" stroke="url(#mG)" stroke-width="0.5" opacity="0.12"/>
    <circle cx="50" cy="3"  r="3" fill="#1c6fff"/>
    <circle cx="97" cy="50" r="3" fill="#5535e0"/>
    <circle cx="50" cy="97" r="3" fill="#e84520"/>
    <circle cx="3"  cy="50" r="3" fill="#f5a000"/>
    <path d="M50 3 Q68 26 50 50 Q32 26 50 3"   stroke="url(#mG)" stroke-width="0.9" fill="none" opacity="0.45"/>
    <path d="M97 50 Q74 68 50 50 Q74 32 97 50"  stroke="url(#mG)" stroke-width="0.9" fill="none" opacity="0.45"/>
    <path d="M50 97 Q32 74 50 50 Q68 74 50 97"  stroke="url(#mG)" stroke-width="0.9" fill="none" opacity="0.45"/>
    <path d="M3 50 Q26 32 50 50 Q26 68 3 50"    stroke="url(#mG)" stroke-width="0.9" fill="none" opacity="0.45"/>
    <path d="M17 17 Q38 38 50 50 Q29 29 17 17"  stroke="url(#mG)" stroke-width="0.6" fill="none" opacity="0.22"/>
    <path d="M83 17 Q62 38 50 50 Q71 29 83 17"  stroke="url(#mG)" stroke-width="0.6" fill="none" opacity="0.22"/>
    <path d="M83 83 Q62 62 50 50 Q71 71 83 83"  stroke="url(#mG)" stroke-width="0.6" fill="none" opacity="0.22"/>
    <path d="M17 83 Q38 62 50 50 Q29 71 17 83"  stroke="url(#mG)" stroke-width="0.6" fill="none" opacity="0.22"/>
  </g>
</defs><rect width="1280" height="800" fill="#0a0a0b"/><rect width="1280" height="800" fill="url(#gp)"/><rect width="1280" height="38" fill="#111113"/><circle cx="16" cy="19" r="5.5" fill="#ff5f57"/><circle cx="32" cy="19" r="5.5" fill="#febc2e"/><circle cx="48" cy="19" r="5.5" fill="#28c840"/><text x="640" y="24" text-anchor="middle" font-size="11" font-family="monospace" fill="#524f58" letter-spacing="1">localhost:7331 -- OpenYantra v3.0.0</text><defs><linearGradient id="gb5218" x1="0" y1="38" x2="1280" y2="38" gradientUnits="userSpaceOnUse"><stop offset="0%" stop-color="#1c6fff"/><stop offset="32%" stop-color="#5535e0"/><stop offset="66%" stop-color="#e84520"/><stop offset="100%" stop-color="#f5a000"/></linearGradient></defs><rect x="0" y="38" width="1280" height="2" fill="url(#gb5218)"/><rect x="0" y="40" width="190" height="760" fill="rgba(9,9,10,0.98)"/>
<rect x="190" y="40" width="1" height="760" fill="rgba(255,255,255,0.07)"/>
<g transform="translate(13.0,55.0) scale(0.22)"><use href="#mark"/></g>
<text x="42" y="63" font-size="11" font-weight="500" font-family="monospace" fill="#e8e5de">OpenYantra</text>
<text x="42" y="75" font-size="8" font-family="monospace" fill="#524f58" letter-spacing="1.5">V3.0.0</text>
<rect x="0" y="86" width="190" height="1" fill="rgba(255,255,255,0.07)"/>
<text x="14" y="102" font-size="11" font-family="monospace" fill="#524f58">🌅 Today</text>
<text x="14" y="124" font-size="11" font-family="monospace" fill="#524f58">📥 Inbox</text>
<text x="14" y="146" font-size="11" font-family="monospace" fill="#524f58">🚀 Projects</text>
<text x="14" y="168" font-size="11" font-family="monospace" fill="#524f58">🔓 Open Loops</text>
<text x="14" y="190" font-size="11" font-family="monospace" fill="#524f58">✅ Tasks</text>
<text x="14" y="212" font-size="11" font-family="monospace" fill="#524f58">🎯 Goals</text>
<text x="14" y="234" font-size="11" font-family="monospace" fill="#524f58">📅 Timeline</text>
<text x="14" y="256" font-size="11" font-family="monospace" fill="#524f58">⚡ Conflicts</text>
<rect x="0" y="264" width="3" height="22" fill="#f5a000"/>
<rect x="0" y="264" width="190" height="22" fill="rgba(255,255,255,0.02)"/>
<text x="14" y="278" font-size="11" font-family="monospace" fill="#e8e5de">🔒 Security</text>
<text x="14" y="300" font-size="11" font-family="monospace" fill="#524f58">📒 Ledger</text>
<text x="14" y="322" font-size="11" font-family="monospace" fill="#524f58">💚 Health</text>
<text x="14" y="344" font-size="11" font-family="monospace" fill="#524f58">📊 Stats</text>
<rect x="0" y="760" width="190" height="40" fill="rgba(9,9,10,0.98)"/>
<rect x="0" y="760" width="190" height="1" fill="rgba(255,255,255,0.07)"/>
<circle cx="18" cy="776" r="3.5" fill="#1aa167"/>
<text x="28" y="779" font-size="9" font-family="monospace" fill="#1aa167">Chitrapat active</text>
<text x="14" y="793" font-size="8" font-family="monospace" fill="#242228">SQLite WAL backend</text><rect x="190" y="40" width="1090" height="44" fill="#111113"/><rect x="190" y="84" width="1090" height="1" fill="rgba(255,255,255,0.07)"/><text x="210" y="67" font-size="13" font-weight="500" font-family="monospace" fill="#e8e5de">🔒 Security -- Raksha Engine</text><rect x="1060" y="50" width="120" height="22"></rect><defs><linearGradient id="gb1974" x1="1060" y1="50" x2="1180" y2="50" gradientUnits="userSpaceOnUse"><stop offset="0%" stop-color="#1c6fff"/><stop offset="32%" stop-color="#5535e0"/><stop offset="66%" stop-color="#e84520"/><stop offset="100%" stop-color="#f5a000"/></linearGradient></defs><rect x="1060" y="50" width="120" height="22" fill="url(#gb1974)"/><text x="1120" y="65" font-size="9" font-weight="normal" font-family="monospace" fill="#fff" text-anchor="middle" letter-spacing="1">RUN FULL SCAN</text><rect x="210" y="100" width="1050" height="32" fill="rgba(26,161,103,0.06)" stroke="rgba(26,161,103,0.25)" stroke-width="1"/><circle cx="228" cy="116" r="5" fill="#1aa167"/><text x="242" y="120" font-size="10" font-weight="normal" font-family="monospace" fill="#1aa167" text-anchor="start" letter-spacing="0">Clean -- No threats detected · 510 rows scanned · Last scan: 2 minutes ago</text><rect x="210" y="148" width="510" height="290" fill="#111113" stroke="rgba(255,255,255,0.07)" stroke-width="1"/><defs><linearGradient id="gb289" x1="210" y1="148" x2="720" y2="148" gradientUnits="userSpaceOnUse"><stop offset="0%" stop-color="#1c6fff"/><stop offset="32%" stop-color="#5535e0"/><stop offset="66%" stop-color="#e84520"/><stop offset="100%" stop-color="#f5a000"/></linearGradient></defs><rect x="210" y="148" width="510" height="2" fill="url(#gb289)"/><text x="228" y="170" font-size="9" font-family="monospace" fill="#524f58" letter-spacing="1.5">AGENT TRUST TIERS (VISHWAS-SHRENI)</text><rect x="228" y="192" width="6" height="22" rx="1" fill="#d4af37"/><text x="244" y="205" font-size="10" font-weight="500" font-family="monospace" fill="#e8e5de" text-anchor="start" letter-spacing="0">Tier 5 -- User</text><text x="244" y="219" font-size="8" font-weight="normal" font-family="monospace" fill="#524f58" text-anchor="start" letter-spacing="0">Dharma-Adesh -- never blocked</text><text x="688" y="205" font-size="9" font-weight="normal" font-family="monospace" fill="#d4af37" text-anchor="end" letter-spacing="0">User</text><rect x="228" y="236" width="6" height="22" rx="1" fill="#f5a000"/><text x="244" y="249" font-size="10" font-weight="500" font-family="monospace" fill="#e8e5de" text-anchor="start" letter-spacing="0">Tier 4 -- Chitragupta</text><text x="244" y="263" font-size="8" font-weight="normal" font-family="monospace" fill="#524f58" text-anchor="start" letter-spacing="0">System writer -- full trust</text><text x="688" y="249" font-size="9" font-weight="normal" font-family="monospace" fill="#f5a000" text-anchor="end" letter-spacing="0">System · Chitragupta</text><rect x="228" y="280" width="6" height="22" rx="1" fill="#1aa167"/><text x="244" y="293" font-size="10" font-weight="500" font-family="monospace" fill="#e8e5de" text-anchor="start" letter-spacing="0">Tier 3 -- Known Agent</text><text x="244" y="307" font-size="8" font-weight="normal" font-family="monospace" fill="#524f58" text-anchor="start" letter-spacing="0">Standard scan applies</text><text x="688" y="293" font-size="9" font-weight="normal" font-family="monospace" fill="#1aa167" text-anchor="end" letter-spacing="0">Claude · OpenClaw · LangChain</text><rect x="228" y="324" width="6" height="22" rx="1" fill="#1c6fff"/><text x="244" y="337" font-size="10" font-weight="500" font-family="monospace" fill="#e8e5de" text-anchor="start" letter-spacing="0">Tier 2 -- Unknown</text><text x="244" y="351" font-size="8" font-weight="normal" font-family="monospace" fill="#524f58" text-anchor="start" letter-spacing="0">Stricter scan</text><text x="688" y="337" font-size="9" font-weight="normal" font-family="monospace" fill="#1c6fff" text-anchor="end" letter-spacing="0">Unregistered agents</text><rect x="228" y="368" width="6" height="22" rx="1" fill="#e84520"/><text x="244" y="381" font-size="10" font-weight="500" font-family="monospace" fill="#e8e5de" text-anchor="start" letter-spacing="0">Tier 1 -- External</text><text x="244" y="395" font-size="8" font-weight="normal" font-family="monospace" fill="#524f58" text-anchor="start" letter-spacing="0">Suspicious treated as confirmed</text><text x="688" y="381" font-size="9" font-weight="normal" font-family="monospace" fill="#e84520" text-anchor="end" letter-spacing="0">Telegram · iOS · Email</text><rect x="228" y="412" width="6" height="22" rx="1" fill="#5535e0"/><text x="244" y="425" font-size="10" font-weight="500" font-family="monospace" fill="#e8e5de" text-anchor="start" letter-spacing="0">Tier 0 -- Untrusted</text><text x="244" y="439" font-size="8" font-weight="normal" font-family="monospace" fill="#524f58" text-anchor="start" letter-spacing="0">Any flag = block</text><text x="688" y="425" font-size="9" font-weight="normal" font-family="monospace" fill="#5535e0" text-anchor="end" letter-spacing="0">Flagged agents</text><rect x="740" y="148" width="520" height="290" fill="#111113" stroke="rgba(255,255,255,0.07)" stroke-width="1"/><defs><linearGradient id="gb9160" x1="740" y1="148" x2="1260" y2="148" gradientUnits="userSpaceOnUse"><stop offset="0%" stop-color="#1c6fff"/><stop offset="32%" stop-color="#5535e0"/><stop offset="66%" stop-color="#e84520"/><stop offset="100%" stop-color="#f5a000"/></linearGradient></defs><rect x="740" y="148" width="520" height="2" fill="url(#gb9160)"/><text x="758" y="170" font-size="9" font-family="monospace" fill="#524f58" letter-spacing="1.5">QUARANTINE -- BLOCKED WRITES</text><circle cx="1000" cy="280" r="40" fill="none" stroke="rgba(26,161,103,0.15)" stroke-width="2"/><circle cx="1000" cy="280" r="26" fill="none" stroke="rgba(26,161,103,0.2)" stroke-width="1.5"/><text x="1000" y="278" font-size="22" font-weight="normal" font-family="monospace" fill="#1aa167" text-anchor="middle" letter-spacing="0">✓</text><text x="1000" y="300" font-size="9" font-weight="normal" font-family="monospace" fill="#1aa167" text-anchor="middle" letter-spacing="0">Clean</text><text x="1000" y="350" font-size="9" font-weight="normal" font-family="monospace" fill="#524f58" text-anchor="middle" letter-spacing="0">No quarantined writes</text><rect x="210" y="458" width="1050" height="310" fill="#111113" stroke="rgba(255,255,255,0.07)" stroke-width="1"/><defs><linearGradient id="gb9322" x1="210" y1="458" x2="1260" y2="458" gradientUnits="userSpaceOnUse"><stop offset="0%" stop-color="#1c6fff"/><stop offset="32%" stop-color="#5535e0"/><stop offset="66%" stop-color="#e84520"/><stop offset="100%" stop-color="#f5a000"/></linearGradient></defs><rect x="210" y="458" width="1050" height="2" fill="url(#gb9322)"/><text x="228" y="480" font-size="9" font-family="monospace" fill="#524f58" letter-spacing="1.5">SECURITY LOG -- RECENT EVENTS</text><rect x="210" y="480" width="1050" height="22" fill="#161618"/><text x="228" y="495" font-size="8" font-weight="normal" font-family="monospace" fill="#524f58" text-anchor="start" letter-spacing="1">TIMESTAMP</text><text x="400" y="495" font-size="8" font-weight="normal" font-family="monospace" fill="#524f58" text-anchor="start" letter-spacing="1">AGENT</text><text x="560" y="495" font-size="8" font-weight="normal" font-family="monospace" fill="#524f58" text-anchor="start" letter-spacing="1">THREAT LEVEL</text><text x="740" y="495" font-size="8" font-weight="normal" font-family="monospace" fill="#524f58" text-anchor="start" letter-spacing="1">STATUS</text><rect x="210" y="502" width="1050" height="1" fill="rgba(255,255,255,0.04)"/><text x="228" y="521" font-size="9" font-weight="normal" font-family="monospace" fill="#524f58" text-anchor="start" letter-spacing="0">09:38:11</text><text x="400" y="521" font-size="9" font-weight="normal" font-family="monospace" fill="#e8e5de" text-anchor="start" letter-spacing="0">TelegramBot</text><rect x="560" y="510" width="72" height="16" rx="3" fill="none" stroke="#f5a000" stroke-width="1" opacity="0.5"/><text x="596" y="521" text-anchor="middle" font-size="8" font-family="monospace" fill="#f5a000">Suspicious</text><text x="740" y="521" font-size="9" font-weight="normal" font-family="monospace" fill="#f5a000" text-anchor="start" letter-spacing="0">Warned -- allowed</text><text x="228" y="542" font-size="8" font-weight="normal" font-family="monospace" fill="#524f58" text-anchor="start" letter-spacing="0">Pattern: possible instruction override · Sanitised and flagged</text><rect x="210" y="552" width="1050" height="1" fill="rgba(255,255,255,0.04)"/><text x="228" y="571" font-size="9" font-weight="normal" font-family="monospace" fill="#524f58" text-anchor="start" letter-spacing="0">Yesterday 14:22:33</text><text x="400" y="571" font-size="9" font-weight="normal" font-family="monospace" fill="#e8e5de" text-anchor="start" letter-spacing="0">Unknown</text><rect x="560" y="560" width="68" height="16" rx="3" fill="none" stroke="#1aa167" stroke-width="1" opacity="0.5"/><text x="594" y="571" text-anchor="middle" font-size="8" font-family="monospace" fill="#1aa167">Clean</text><text x="740" y="571" font-size="9" font-weight="normal" font-family="monospace" fill="#1aa167" text-anchor="start" letter-spacing="0">Passed</text></svg>