<svg xmlns="http://www.w3.org/2000/svg" viewBox="0 0 1280 580" width="1280" height="580"><defs>
  <linearGradient id="grad" x1="0" y1="0" x2="1" y2="0">
    <stop offset="0%" stop-color="#1c6fff"/>
    <stop offset="32%" stop-color="#5535e0"/>
    <stop offset="66%" stop-color="#e84520"/>
    <stop offset="100%" stop-color="#f5a000"/>
  </linearGradient>
  <linearGradient id="mG" x1="0" y1="0" x2="100" y2="100" gradientUnits="userSpaceOnUse">
    <stop offset="0%" stop-color="#1c6fff"/>
    <stop offset="33%" stop-color="#5535e0"/>
    <stop offset="66%" stop-color="#e84520"/>
    <stop offset="100%" stop-color="#f5a000"/>
  </linearGradient>
  <pattern id="gp" width="32" height="32" patternUnits="userSpaceOnUse">
    <path d="M32 0L0 0 0 32" fill="none" stroke="rgba(255,255,255,0.017)" stroke-width="1"/>
  </pattern>
  <!-- CANONICAL MARK — exact from brand-manual.html -->
  <g id="mark">
    <circle cx="50" cy="50" r="47" stroke="url(#mG)" stroke-width="1.5" fill="none"/>
    <circle cx="50" cy="50" r="33" stroke="url(#mG)" stroke-width="1" fill="none" opacity="0.5"/>
    <circle cx="50" cy="50" r="18" stroke="url(#mG)" stroke-width="0.8" fill="none" opacity="0.3"/>
    <circle cx="50" cy="50" r="4" fill="url(#mG)"/>
    <line x1="50" y1="3"  x2="50" y2="97" stroke="url(#mG)" stroke-width="0.7" opacity="0.2"/>
    <line x1="3"  y1="50" x2="97" y2="50" stroke="url(#mG)" stroke-width="0.7" opacity="0.2"/>
    <line x1="17" y1="17" x2="83" y2="83" stroke="url(#mG)" stroke-width="0.5" opacity="0.12"/>
    <line x1="83" y1="17" x2="17" y2="83" stroke="url(#mG)" stroke-width="0.5" opacity="0.12"/>
    <circle cx="50" cy="3"  r="3" fill="#1c6fff"/>
    <circle cx="97" cy="50" r="3" fill="#5535e0"/>
    <circle cx="50" cy="97" r="3" fill="#e84520"/>
    <circle cx="3"  cy="50" r="3" fill="#f5a000"/>
    <path d="M50 3 Q68 26 50 50 Q32 26 50 3"   stroke="url(#mG)" stroke-width="0.9" fill="none" opacity="0.45"/>
    <path d="M97 50 Q74 68 50 50 Q74 32 97 50"  stroke="url(#mG)" stroke-width="0.9" fill="none" opacity="0.45"/>
    <path d="M50 97 Q32 74 50 50 Q68 74 50 97"  stroke="url(#mG)" stroke-width="0.9" fill="none" opacity="0.45"/>
    <path d="M3 50 Q26 32 50 50 Q26 68 3 50"    stroke="url(#mG)" stroke-width="0.9" fill="none" opacity="0.45"/>
    <path d="M17 17 Q38 38 50 50 Q29 29 17 17"  stroke="url(#mG)" stroke-width="0.6" fill="none" opacity="0.22"/>
    <path d="M83 17 Q62 38 50 50 Q71 29 83 17"  stroke="url(#mG)" stroke-width="0.6" fill="none" opacity="0.22"/>
    <path d="M83 83 Q62 62 50 50 Q71 71 83 83"  stroke="url(#mG)" stroke-width="0.6" fill="none" opacity="0.22"/>
    <path d="M17 83 Q38 62 50 50 Q29 71 17 83"  stroke="url(#mG)" stroke-width="0.6" fill="none" opacity="0.22"/>
  </g>
</defs><rect width="1280" height="580" fill="#0a0a0b"/><rect width="1280" height="580" fill="url(#gp)"/><rect width="1280" height="38" fill="#111113"/><circle cx="16" cy="19" r="5.5" fill="#ff5f57"/><circle cx="32" cy="19" r="5.5" fill="#febc2e"/><circle cx="48" cy="19" r="5.5" fill="#28c840"/><text x="640" y="24" text-anchor="middle" font-size="11" font-family="monospace" fill="#524f58" letter-spacing="1">localhost:7331 -- OpenYantra v3.0.0</text><defs><linearGradient id="gb5218" x1="0" y1="38" x2="1280" y2="38" gradientUnits="userSpaceOnUse"><stop offset="0%" stop-color="#1c6fff"/><stop offset="32%" stop-color="#5535e0"/><stop offset="66%" stop-color="#e84520"/><stop offset="100%" stop-color="#f5a000"/></linearGradient></defs><rect x="0" y="38" width="1280" height="2" fill="url(#gb5218)"/><defs><linearGradient id="gb5218" x1="0" y1="38" x2="1280" y2="38" gradientUnits="userSpaceOnUse"><stop offset="0%" stop-color="#1c6fff"/><stop offset="32%" stop-color="#5535e0"/><stop offset="66%" stop-color="#e84520"/><stop offset="100%" stop-color="#f5a000"/></linearGradient></defs><rect x="0" y="38" width="1280" height="2" fill="url(#gb5218)"/><rect x="160" y="30" width="960" height="520" fill="#060607" stroke="rgba(255,255,255,0.07)" stroke-width="1"/><rect x="160" y="30" width="960" height="34" fill="#111113"/><circle cx="182" cy="47" r="5" fill="#ff5f57"/><circle cx="198" cy="47" r="5" fill="#febc2e"/><circle cx="214" cy="47" r="5" fill="#28c840"/><text x="640" y="52" font-size="10" font-weight="normal" font-family="monospace" fill="#524f58" text-anchor="middle" letter-spacing="0">yantra -- zsh -- OpenYantra v3.0.0</text><defs><linearGradient id="gb6141" x1="160" y1="64" x2="1120" y2="64" gradientUnits="userSpaceOnUse"><stop offset="0%" stop-color="#1c6fff"/><stop offset="32%" stop-color="#5535e0"/><stop offset="66%" stop-color="#e84520"/><stop offset="100%" stop-color="#f5a000"/></linearGradient></defs><rect x="160" y="64" width="960" height="2" fill="url(#gb6141)"/><text x="190" y="102" font-size="12" font-weight="normal" font-family="monospace" fill="#e84520" text-anchor="start" letter-spacing="0">$</text><text x="208" y="102" font-size="12" font-weight="normal" font-family="monospace" fill="#f5a000" text-anchor="start" letter-spacing="0">yantra</text><text x="276" y="102" font-size="12" font-weight="normal" font-family="monospace" fill="#1c6fff" text-anchor="start" letter-spacing="0">morning</text><text x="190" y="120" font-size="11" font-weight="normal" font-family="monospace" fill="rgba(232,229,222,0.4)" text-anchor="start" letter-spacing="0">Good morning, Revanth. 3 day streak -- 2 loops urgent (2d left)</text><text x="190" y="158" font-size="12" font-weight="normal" font-family="monospace" fill="#e84520" text-anchor="start" letter-spacing="0">$</text><text x="208" y="158" font-size="12" font-weight="normal" font-family="monospace" fill="#f5a000" text-anchor="start" letter-spacing="0">yantra</text><text x="276" y="158" font-size="12" font-weight="normal" font-family="monospace" fill="#1c6fff" text-anchor="start" letter-spacing="0">inbox</text><text x="321" y="158" font-size="12" font-weight="normal" font-family="monospace" fill="#1aa167" text-anchor="start" letter-spacing="0">"Priya confirmed budget by Friday"</text><text x="190" y="176" font-size="11" font-weight="normal" font-family="monospace" fill="rgba(232,229,222,0.4)" text-anchor="start" letter-spacing="0">Queued #a3f9d2c1 -- SQLite WAL: 2ms -- Records: 248</text><text x="190" y="176" font-size="11" font-weight="normal" font-family="monospace" fill="#1aa167" text-anchor="start" letter-spacing="0">Queued</text><text x="246" y="176" font-size="11" font-weight="normal" font-family="monospace" fill="rgba(232,229,222,0.4)" text-anchor="start" letter-spacing="0">#a3f9d2c1 -- SQLite WAL: 2ms -- Records: 248</text><text x="190" y="214" font-size="12" font-weight="normal" font-family="monospace" fill="#e84520" text-anchor="start" letter-spacing="0">$</text><text x="208" y="214" font-size="12" font-weight="normal" font-family="monospace" fill="#f5a000" text-anchor="start" letter-spacing="0">yantra</text><text x="276" y="214" font-size="12" font-weight="normal" font-family="monospace" fill="#1c6fff" text-anchor="start" letter-spacing="0">context</text><text x="190" y="232" font-size="11" font-weight="normal" font-family="monospace" fill="rgba(232,229,222,0.4)" text-anchor="start" letter-spacing="0">Context copied to clipboard. Paste into Claude.ai, ChatGPT, etc.</text><text x="190" y="270" font-size="12" font-weight="normal" font-family="monospace" fill="#e84520" text-anchor="start" letter-spacing="0">$</text><text x="208" y="270" font-size="12" font-weight="normal" font-family="monospace" fill="#f5a000" text-anchor="start" letter-spacing="0">yantra</text><text x="276" y="270" font-size="12" font-weight="normal" font-family="monospace" fill="#1c6fff" text-anchor="start" letter-spacing="0">loops</text><text x="190" y="288" font-size="11" font-weight="normal" font-family="monospace" fill="rgba(232,229,222,0.4)" text-anchor="start" letter-spacing="0">12 open loops -- 3 high · 6 medium · 3 low</text><text x="190" y="326" font-size="12" font-weight="normal" font-family="monospace" fill="#e84520" text-anchor="start" letter-spacing="0">$</text><text x="208" y="326" font-size="12" font-weight="normal" font-family="monospace" fill="#f5a000" text-anchor="start" letter-spacing="0">yantra</text><text x="276" y="326" font-size="12" font-weight="normal" font-family="monospace" fill="#1c6fff" text-anchor="start" letter-spacing="0">health</text><text x="190" y="344" font-size="11" font-weight="normal" font-family="monospace" fill="rgba(232,229,222,0.4)" text-anchor="start" letter-spacing="0">Chitrapat.ods OK -- 1.2MB  ·  SQLite WAL: 2ms  ·  Ledger: 489 entries -- valid</text><text x="190" y="382" font-size="12" font-weight="normal" font-family="monospace" fill="#e84520" text-anchor="start" letter-spacing="0">$</text><text x="208" y="382" font-size="12" font-weight="normal" font-family="monospace" fill="#f5a000" text-anchor="start" letter-spacing="0">yantra</text><text x="276" y="382" font-size="12" font-weight="normal" font-family="monospace" fill="#1c6fff" text-anchor="start" letter-spacing="0">ui</text><text x="190" y="400" font-size="11" font-weight="normal" font-family="monospace" fill="rgba(232,229,222,0.4)" text-anchor="start" letter-spacing="0">Opening http://localhost:7331 ...</text><text x="190" y="438" font-size="12" font-weight="normal" font-family="monospace" fill="#e84520" text-anchor="start" letter-spacing="0">$</text><text x="208" y="438" font-size="12" font-weight="normal" font-family="monospace" fill="#f5a000" text-anchor="start" letter-spacing="0">yantra</text><text x="276" y="438" font-size="12" font-weight="normal" font-family="monospace" fill="#1c6fff" text-anchor="start" letter-spacing="0">sync</text><text x="190" y="456" font-size="11" font-weight="normal" font-family="monospace" fill="rgba(232,229,222,0.4)" text-anchor="start" letter-spacing="0">Sync complete. ODS edits imported to SQLite -- 0 conflicts</text></svg>