<svg xmlns="http://www.w3.org/2000/svg" viewBox="0 0 1280 720" width="1280" height="720"><defs>
  <linearGradient id="grad" x1="0" y1="0" x2="1" y2="0">
    <stop offset="0%" stop-color="#1c6fff"/>
    <stop offset="32%" stop-color="#5535e0"/>
    <stop offset="66%" stop-color="#e84520"/>
    <stop offset="100%" stop-color="#f5a000"/>
  </linearGradient>
  <linearGradient id="mG" x1="0" y1="0" x2="100" y2="100" gradientUnits="userSpaceOnUse">
    <stop offset="0%" stop-color="#1c6fff"/>
    <stop offset="33%" stop-color="#5535e0"/>
    <stop offset="66%" stop-color="#e84520"/>
    <stop offset="100%" stop-color="#f5a000"/>
  </linearGradient>
  <pattern id="gp" width="32" height="32" patternUnits="userSpaceOnUse">
    <path d="M32 0L0 0 0 32" fill="none" stroke="rgba(255,255,255,0.017)" stroke-width="1"/>
  </pattern>
  <!-- CANONICAL MARK — exact from brand-manual.html -->
  <g id="mark">
    <circle cx="50" cy="50" r="47" stroke="url(#mG)" stroke-width="1.5" fill="none"/>
    <circle cx="50" cy="50" r="33" stroke="url(#mG)" stroke-width="1" fill="none" opacity="0.5"/>
    <circle cx="50" cy="50" r="18" stroke="url(#mG)" stroke-width="0.8" fill="none" opacity="0.3"/>
    <circle cx="50" cy="50" r="4" fill="url(#mG)"/>
    <line x1="50" y1="3"  x2="50" y2="97" stroke="url(#mG)" stroke-width="0.7" opacity="0.2"/>
    <line x1="3"  y1="50" x2="97" y2="50" stroke="url(#mG)" stroke-width="0.7" opacity="0.2"/>
    <line x1="17" y1="17" x2="83" y2="83" stroke="url(#mG)" stroke-width="0.5" opacity="0.12"/>
    <line x1="83" y1="17" x2="17" y2="83" stroke="url(#mG)" stroke-width="0.5" opacity="0.12"/>
    <circle cx="50" cy="3"  r="3" fill="#1c6fff"/>
    <circle cx="97" cy="50" r="3" fill="#5535e0"/>
    <circle cx="50" cy="97" r="3" fill="#e84520"/>
    <circle cx="3"  cy="50" r="3" fill="#f5a000"/>
    <path d="M50 3 Q68 26 50 50 Q32 26 50 3"   stroke="url(#mG)" stroke-width="0.9" fill="none" opacity="0.45"/>
    <path d="M97 50 Q74 68 50 50 Q74 32 97 50"  stroke="url(#mG)" stroke-width="0.9" fill="none" opacity="0.45"/>
    <path d="M50 97 Q32 74 50 50 Q68 74 50 97"  stroke="url(#mG)" stroke-width="0.9" fill="none" opacity="0.45"/>
    <path d="M3 50 Q26 32 50 50 Q26 68 3 50"    stroke="url(#mG)" stroke-width="0.9" fill="none" opacity="0.45"/>
    <path d="M17 17 Q38 38 50 50 Q29 29 17 17"  stroke="url(#mG)" stroke-width="0.6" fill="none" opacity="0.22"/>
    <path d="M83 17 Q62 38 50 50 Q71 29 83 17"  stroke="url(#mG)" stroke-width="0.6" fill="none" opacity="0.22"/>
    <path d="M83 83 Q62 62 50 50 Q71 71 83 83"  stroke="url(#mG)" stroke-width="0.6" fill="none" opacity="0.22"/>
    <path d="M17 83 Q38 62 50 50 Q29 71 17 83"  stroke="url(#mG)" stroke-width="0.6" fill="none" opacity="0.22"/>
  </g>
</defs><rect width="1280" height="720" fill="#0a0a0b"/><rect width="1280" height="720" fill="url(#gp)"/><defs><linearGradient id="gb810" x1="0" y1="0" x2="1280" y2="0" gradientUnits="userSpaceOnUse"><stop offset="0%" stop-color="#1c6fff"/><stop offset="32%" stop-color="#5535e0"/><stop offset="66%" stop-color="#e84520"/><stop offset="100%" stop-color="#f5a000"/></linearGradient></defs><rect x="0" y="0" width="1280" height="3" fill="url(#gb810)"/><text x="640" y="48" font-size="9" font-weight="normal" font-family="monospace" fill="#524f58" text-anchor="middle" letter-spacing="2">OPENYANTRA v3.0.0 -- SYSTEM ARCHITECTURE</text><text x="100" y="96" font-size="8" font-weight="normal" font-family="monospace" fill="#242228" text-anchor="start" letter-spacing="2">AGENTS -- READ ONLY</text><rect x="80" y="104" width="200" height="70" fill="#111113" stroke="#1c6fff" stroke-width="1" opacity="0.3"/><defs><linearGradient id="gb4050" x1="80" y1="104" x2="280" y2="104" gradientUnits="userSpaceOnUse"><stop offset="0%" stop-color="#1c6fff"/><stop offset="32%" stop-color="#5535e0"/><stop offset="66%" stop-color="#e84520"/><stop offset="100%" stop-color="#f5a000"/></linearGradient></defs><rect x="80" y="104" width="200" height="2" fill="url(#gb4050)"/><text x="100" y="130" font-size="11" font-weight="500" font-family="monospace" fill="#e8e5de" text-anchor="start" letter-spacing="0">Claude / ChatGPT</text><text x="100" y="148" font-size="8" font-weight="normal" font-family="monospace" fill="#524f58" text-anchor="start" letter-spacing="0">Reads context via system prompt</text><rect x="300" y="104" width="200" height="70" fill="#111113" stroke="#1c6fff" stroke-width="1" opacity="0.3"/><defs><linearGradient id="gb6681" x1="300" y1="104" x2="500" y2="104" gradientUnits="userSpaceOnUse"><stop offset="0%" stop-color="#1c6fff"/><stop offset="32%" stop-color="#5535e0"/><stop offset="66%" stop-color="#e84520"/><stop offset="100%" stop-color="#f5a000"/></linearGradient></defs><rect x="300" y="104" width="200" height="2" fill="url(#gb6681)"/><text x="320" y="130" font-size="11" font-weight="500" font-family="monospace" fill="#e8e5de" text-anchor="start" letter-spacing="0">OpenClaw / LangChain</text><text x="320" y="148" font-size="8" font-weight="normal" font-family="monospace" fill="#524f58" text-anchor="start" letter-spacing="0">Session hooks + adapters</text><rect x="520" y="104" width="200" height="70" fill="#111113" stroke="#1c6fff" stroke-width="1" opacity="0.3"/><defs><linearGradient id="gb5256" x1="520" y1="104" x2="720" y2="104" gradientUnits="userSpaceOnUse"><stop offset="0%" stop-color="#1c6fff"/><stop offset="32%" stop-color="#5535e0"/><stop offset="66%" stop-color="#e84520"/><stop offset="100%" stop-color="#f5a000"/></linearGradient></defs><rect x="520" y="104" width="200" height="2" fill="url(#gb5256)"/><text x="540" y="130" font-size="11" font-weight="500" font-family="monospace" fill="#e8e5de" text-anchor="start" letter-spacing="0">VidyaKosha</text><text x="540" y="148" font-size="8" font-weight="normal" font-family="monospace" fill="#524f58" text-anchor="start" letter-spacing="0">BM25 + TF-IDF · incremental sync</text><rect x="740" y="104" width="200" height="70" fill="#111113" stroke="#e84520" stroke-width="1" opacity="0.3"/><defs><linearGradient id="gb7613" x1="740" y1="104" x2="940" y2="104" gradientUnits="userSpaceOnUse"><stop offset="0%" stop-color="#1c6fff"/><stop offset="32%" stop-color="#5535e0"/><stop offset="66%" stop-color="#e84520"/><stop offset="100%" stop-color="#f5a000"/></linearGradient></defs><rect x="740" y="104" width="200" height="2" fill="url(#gb7613)"/><text x="760" y="130" font-size="11" font-weight="500" font-family="monospace" fill="#e8e5de" text-anchor="start" letter-spacing="0">Telegram / iOS / Email</text><text x="760" y="148" font-size="8" font-weight="normal" font-family="monospace" fill="#524f58" text-anchor="start" letter-spacing="0">Routes to Inbox via trust tier 1</text><rect x="960" y="104" width="200" height="70" fill="#111113" stroke="#1c6fff" stroke-width="1" opacity="0.3"/><defs><linearGradient id="gb2098" x1="960" y1="104" x2="1160" y2="104" gradientUnits="userSpaceOnUse"><stop offset="0%" stop-color="#1c6fff"/><stop offset="32%" stop-color="#5535e0"/><stop offset="66%" stop-color="#e84520"/><stop offset="100%" stop-color="#f5a000"/></linearGradient></defs><rect x="960" y="104" width="200" height="2" fill="url(#gb2098)"/><text x="980" y="130" font-size="11" font-weight="500" font-family="monospace" fill="#e8e5de" text-anchor="start" letter-spacing="0">yantra ui</text><text x="980" y="148" font-size="8" font-weight="normal" font-family="monospace" fill="#524f58" text-anchor="start" letter-spacing="0">Browser · localhost:7331</text><line x1="640" y1="174" x2="640" y2="218" stroke="#242228" stroke-width="1.5"/><polygon points="634,212 640,224 646,212" fill="#242228"/><text x="658" y="202" font-size="8" font-weight="normal" font-family="monospace" fill="#242228" text-anchor="start" letter-spacing="0">WriteRequest (Karma-Lekha)</text><text x="100" y="244" font-size="8" font-weight="normal" font-family="monospace" fill="#242228" text-anchor="start" letter-spacing="2">SECURITY -- RAKSHA ENGINE</text><rect x="340" y="252" width="600" height="60" fill="#111113" stroke="#e84520" stroke-width="1" opacity="0.25"/><defs><linearGradient id="gb327" x1="340" y1="252" x2="940" y2="252" gradientUnits="userSpaceOnUse"><stop offset="0%" stop-color="#1c6fff"/><stop offset="32%" stop-color="#5535e0"/><stop offset="66%" stop-color="#e84520"/><stop offset="100%" stop-color="#f5a000"/></linearGradient></defs><rect x="340" y="252" width="600" height="2" fill="url(#gb327)"/><text x="640" y="276" font-size="11" font-weight="500" font-family="monospace" fill="#e8e5de" text-anchor="middle" letter-spacing="0">Raksha -- Injection Scanner · Trust Tiers · Mudra Verify</text><text x="640" y="298" font-size="8" font-weight="normal" font-family="monospace" fill="#524f58" text-anchor="middle" letter-spacing="0">CONFIRMED -> block + quarantine   SUSPICIOUS -> warn + flag   CLEAN -> pass</text><line x1="640" y1="312" x2="640" y2="348" stroke="#242228" stroke-width="1.5"/><polygon points="634,342 640,354 646,342" fill="#242228"/><text x="100" y="374" font-size="8" font-weight="normal" font-family="monospace" fill="#242228" text-anchor="start" letter-spacing="2">SOLE WRITER -- CHITRAGUPTA (LEDGERAGENT)</text><rect x="240" y="382" width="800" height="80" fill="#111113" stroke="#f5a000" stroke-width="1.5" opacity="0.35"/><defs><linearGradient id="gb9305" x1="240" y1="382" x2="1040" y2="382" gradientUnits="userSpaceOnUse"><stop offset="0%" stop-color="#1c6fff"/><stop offset="32%" stop-color="#5535e0"/><stop offset="66%" stop-color="#e84520"/><stop offset="100%" stop-color="#f5a000"/></linearGradient></defs><rect x="240" y="382" width="800" height="3" fill="url(#gb9305)"/><text x="640" y="413" font-size="13" font-weight="500" font-family="monospace" fill="#e8e5de" text-anchor="middle" letter-spacing="0">Chitragupta</text><text x="280" y="438" font-size="9" font-weight="normal" font-family="monospace" fill="#524f58" text-anchor="start" letter-spacing="0">1. Admission gate</text><text x="510" y="438" font-size="9" font-weight="normal" font-family="monospace" fill="#524f58" text-anchor="start" letter-spacing="0">2. Validate vocab</text><text x="740" y="438" font-size="9" font-weight="normal" font-family="monospace" fill="#524f58" text-anchor="start" letter-spacing="0">3. Vivada conflict</text><text x="280" y="454" font-size="9" font-weight="normal" font-family="monospace" fill="#524f58" text-anchor="start" letter-spacing="0">4. SHA-256 Mudra</text><text x="510" y="454" font-size="9" font-weight="normal" font-family="monospace" fill="#524f58" text-anchor="start" letter-spacing="0">5. SQLite WAL write</text><text x="740" y="454" font-size="9" font-weight="normal" font-family="monospace" fill="#524f58" text-anchor="start" letter-spacing="0">6. Agrasandhani audit</text><line x1="500" y1="462" x2="500" y2="510" stroke="#242228" stroke-width="1.5"/><polygon points="494,504 500,516 506,504" fill="#242228"/><text x="380" y="490" font-size="8" font-weight="normal" font-family="monospace" fill="#242228" text-anchor="start" letter-spacing="0">2ms SQLite WAL</text><line x1="780" y1="462" x2="780" y2="510" stroke="#242228" stroke-width="1.5" stroke-dasharray="4,3"/><polygon points="774,504 780,516 786,504" fill="#242228"/><text x="680" y="490" font-size="8" font-weight="normal" font-family="monospace" fill="#242228" text-anchor="start" letter-spacing="0">async ODS export</text><text x="100" y="536" font-size="8" font-weight="normal" font-family="monospace" fill="#242228" text-anchor="start" letter-spacing="2">STORAGE -- v3.0 SETU (BRIDGE)</text><rect x="300" y="544" width="360" height="80" fill="#111113" stroke="#1aa167" stroke-width="1.5" opacity="0.35"/><defs><linearGradient id="gb6618" x1="300" y1="544" x2="660" y2="544" gradientUnits="userSpaceOnUse"><stop offset="0%" stop-color="#1c6fff"/><stop offset="32%" stop-color="#5535e0"/><stop offset="66%" stop-color="#e84520"/><stop offset="100%" stop-color="#f5a000"/></linearGradient></defs><rect x="300" y="544" width="360" height="3" fill="url(#gb6618)"/><g transform="translate(322.0,562.0) scale(0.36)"><use href="#mark"/></g><text x="380" y="572" font-size="12" font-weight="500" font-family="monospace" fill="#e8e5de" text-anchor="start" letter-spacing="0">SQLite WAL</text><text x="380" y="590" font-size="8" font-weight="normal" font-family="monospace" fill="#524f58" text-anchor="start" letter-spacing="0">chitrapat.db -- 2ms writes</text><text x="380" y="608" font-size="8" font-weight="normal" font-family="monospace" fill="#1aa167" text-anchor="start" letter-spacing="0">operational source of truth</text><rect x="680" y="544" width="360" height="80" fill="#111113" stroke="#1c6fff" stroke-width="1" opacity="0.25"/><defs><linearGradient id="gb5344" x1="680" y1="544" x2="1040" y2="544" gradientUnits="userSpaceOnUse"><stop offset="0%" stop-color="#1c6fff"/><stop offset="32%" stop-color="#5535e0"/><stop offset="66%" stop-color="#e84520"/><stop offset="100%" stop-color="#f5a000"/></linearGradient></defs><rect x="680" y="544" width="360" height="2" fill="url(#gb5344)"/><text x="720" y="572" font-size="12" font-weight="500" font-family="monospace" fill="#e8e5de" text-anchor="start" letter-spacing="0">Chitrapat.ods</text><text x="720" y="590" font-size="8" font-weight="normal" font-family="monospace" fill="#524f58" text-anchor="start" letter-spacing="0">ISO/IEC 26300 · Open in LibreOffice</text><text x="720" y="608" font-size="8" font-weight="normal" font-family="monospace" fill="#524f58" text-anchor="start" letter-spacing="0">human-readable canonical export</text><line x1="660" y1="584" x2="680" y2="584" stroke="#5535e0" stroke-width="1.5"/><polygon points="654,580 660,584 654,588" fill="#5535e0"/><polygon points="686,580 680,584 686,588" fill="#5535e0"/><text x="670" y="578" font-size="7" font-weight="normal" font-family="monospace" fill="#5535e0" text-anchor="middle" letter-spacing="0">sync</text><line x1="500" y1="624" x2="500" y2="660" stroke="#242228" stroke-width="1.5"/><rect x="300" y="660" width="800" height="46" fill="#111113" stroke="#5535e0" stroke-width="1" opacity="0.25"/><defs><linearGradient id="gb6413" x1="300" y1="660" x2="1100" y2="660" gradientUnits="userSpaceOnUse"><stop offset="0%" stop-color="#1c6fff"/><stop offset="32%" stop-color="#5535e0"/><stop offset="66%" stop-color="#e84520"/><stop offset="100%" stop-color="#f5a000"/></linearGradient></defs><rect x="300" y="660" width="800" height="2" fill="url(#gb6413)"/><text x="640" y="684" font-size="10" font-weight="500" font-family="monospace" fill="#e8e5de" text-anchor="middle" letter-spacing="0">VidyaKosha · BM25 + TF-IDF · incremental_update() reads from SQLite</text><text x="640" y="698" font-size="8" font-weight="normal" font-family="monospace" fill="#524f58" text-anchor="middle" letter-spacing="0">faiss.index · bm25.pkl · vidyakosha_registry.json · pratibimba/ snapshots</text><text x="1160" y="400" font-size="9" font-weight="normal" font-family="monospace" fill="#d4af37" text-anchor="end" letter-spacing="0">Dharma-Adesh:</text><text x="1160" y="416" font-size="8" font-weight="normal" font-family="monospace" fill="#524f58" text-anchor="end" letter-spacing="0">User edits always</text><text x="1160" y="430" font-size="8" font-weight="normal" font-family="monospace" fill="#524f58" text-anchor="end" letter-spacing="0">override agents</text><line x1="1100" y1="420" x2="1040" y2="430" stroke="#d4af37" stroke-width="1" stroke-dasharray="3,2"/></svg>