<svg xmlns="http://www.w3.org/2000/svg" viewBox="0 0 1280 720" width="1280" height="720"><defs>
  <linearGradient id="grad" x1="0" y1="0" x2="1" y2="0">
    <stop offset="0%" stop-color="#1c6fff"/>
    <stop offset="32%" stop-color="#5535e0"/>
    <stop offset="66%" stop-color="#e84520"/>
    <stop offset="100%" stop-color="#f5a000"/>
  </linearGradient>
  <linearGradient id="mG" x1="0" y1="0" x2="100" y2="100" gradientUnits="userSpaceOnUse">
    <stop offset="0%" stop-color="#1c6fff"/>
    <stop offset="33%" stop-color="#5535e0"/>
    <stop offset="66%" stop-color="#e84520"/>
    <stop offset="100%" stop-color="#f5a000"/>
  </linearGradient>
  <pattern id="gp" width="32" height="32" patternUnits="userSpaceOnUse">
    <path d="M32 0L0 0 0 32" fill="none" stroke="rgba(255,255,255,0.017)" stroke-width="1"/>
  </pattern>
  <!-- CANONICAL MARK — exact from brand-manual.html -->
  <g id="mark">
    <circle cx="50" cy="50" r="47" stroke="url(#mG)" stroke-width="1.5" fill="none"/>
    <circle cx="50" cy="50" r="33" stroke="url(#mG)" stroke-width="1" fill="none" opacity="0.5"/>
    <circle cx="50" cy="50" r="18" stroke="url(#mG)" stroke-width="0.8" fill="none" opacity="0.3"/>
    <circle cx="50" cy="50" r="4" fill="url(#mG)"/>
    <line x1="50" y1="3"  x2="50" y2="97" stroke="url(#mG)" stroke-width="0.7" opacity="0.2"/>
    <line x1="3"  y1="50" x2="97" y2="50" stroke="url(#mG)" stroke-width="0.7" opacity="0.2"/>
    <line x1="17" y1="17" x2="83" y2="83" stroke="url(#mG)" stroke-width="0.5" opacity="0.12"/>
    <line x1="83" y1="17" x2="17" y2="83" stroke="url(#mG)" stroke-width="0.5" opacity="0.12"/>
    <circle cx="50" cy="3"  r="3" fill="#1c6fff"/>
    <circle cx="97" cy="50" r="3" fill="#5535e0"/>
    <circle cx="50" cy="97" r="3" fill="#e84520"/>
    <circle cx="3"  cy="50" r="3" fill="#f5a000"/>
    <path d="M50 3 Q68 26 50 50 Q32 26 50 3"   stroke="url(#mG)" stroke-width="0.9" fill="none" opacity="0.45"/>
    <path d="M97 50 Q74 68 50 50 Q74 32 97 50"  stroke="url(#mG)" stroke-width="0.9" fill="none" opacity="0.45"/>
    <path d="M50 97 Q32 74 50 50 Q68 74 50 97"  stroke="url(#mG)" stroke-width="0.9" fill="none" opacity="0.45"/>
    <path d="M3 50 Q26 32 50 50 Q26 68 3 50"    stroke="url(#mG)" stroke-width="0.9" fill="none" opacity="0.45"/>
    <path d="M17 17 Q38 38 50 50 Q29 29 17 17"  stroke="url(#mG)" stroke-width="0.6" fill="none" opacity="0.22"/>
    <path d="M83 17 Q62 38 50 50 Q71 29 83 17"  stroke="url(#mG)" stroke-width="0.6" fill="none" opacity="0.22"/>
    <path d="M83 83 Q62 62 50 50 Q71 71 83 83"  stroke="url(#mG)" stroke-width="0.6" fill="none" opacity="0.22"/>
    <path d="M17 83 Q38 62 50 50 Q29 71 17 83"  stroke="url(#mG)" stroke-width="0.6" fill="none" opacity="0.22"/>
  </g>
</defs><rect width="1280" height="720" fill="#0a0a0b"/><rect width="1280" height="720" fill="url(#gp)"/><defs><linearGradient id="gb810" x1="0" y1="0" x2="1280" y2="0" gradientUnits="userSpaceOnUse"><stop offset="0%" stop-color="#1c6fff"/><stop offset="32%" stop-color="#5535e0"/><stop offset="66%" stop-color="#e84520"/><stop offset="100%" stop-color="#f5a000"/></linearGradient></defs><rect x="0" y="0" width="1280" height="3" fill="url(#gb810)"/><rect width="220" height="720" fill="rgba(9,9,10,0.98)"/><rect x="220" width="1" height="720" fill="rgba(255,255,255,0.07)"/><g transform="translate(18.0,22.0) scale(0.28)"><use href="#mark"/></g><text x="54" y="32" font-size="13" font-weight="500" font-family="monospace" fill="#e8e5de" text-anchor="start" letter-spacing="0">OpenYantra</text><text x="54" y="47" font-size="8" font-weight="normal" font-family="monospace" fill="#524f58" text-anchor="start" letter-spacing="1.5">BRAND MANUAL</text><rect x="0" y="64" width="220" height="1" fill="rgba(255,255,255,0.07)"/><text x="20" y="88" font-size="10" font-weight="normal" font-family="monospace" fill="#524f58" text-anchor="start" letter-spacing="0">00 Cover</text><text x="20" y="110" font-size="10" font-weight="normal" font-family="monospace" fill="#524f58" text-anchor="start" letter-spacing="0">01 Philosophy</text><rect x="0" y="118" width="3" height="20" fill="#f5a000"/><rect x="0" y="118" width="220" height="20" fill="rgba(255,255,255,0.02)"/><text x="20" y="132" font-size="10" font-weight="normal" font-family="monospace" fill="#e8e5de" text-anchor="start" letter-spacing="0">02 Logo System</text><text x="20" y="154" font-size="10" font-weight="normal" font-family="monospace" fill="#524f58" text-anchor="start" letter-spacing="0">03 Color System</text><text x="20" y="176" font-size="10" font-weight="normal" font-family="monospace" fill="#524f58" text-anchor="start" letter-spacing="0">04 Typography</text><text x="20" y="198" font-size="10" font-weight="normal" font-family="monospace" fill="#524f58" text-anchor="start" letter-spacing="0">05 Geometry</text><text x="20" y="220" font-size="10" font-weight="normal" font-family="monospace" fill="#524f58" text-anchor="start" letter-spacing="0">06 Web UI</text><text x="20" y="242" font-size="10" font-weight="normal" font-family="monospace" fill="#524f58" text-anchor="start" letter-spacing="0">07 Mobile UI</text><text x="20" y="264" font-size="10" font-weight="normal" font-family="monospace" fill="#524f58" text-anchor="start" letter-spacing="0">08 CLI Design</text><text x="20" y="286" font-size="10" font-weight="normal" font-family="monospace" fill="#524f58" text-anchor="start" letter-spacing="0">09 Components</text><text x="20" y="308" font-size="10" font-weight="normal" font-family="monospace" fill="#524f58" text-anchor="start" letter-spacing="0">10 Brand Assets</text><text x="20" y="330" font-size="10" font-weight="normal" font-family="monospace" fill="#524f58" text-anchor="start" letter-spacing="0">11 Do / Don't</text><text x="250" y="40" font-size="8" font-weight="normal" font-family="monospace" fill="#524f58" text-anchor="start" letter-spacing="2">02 / LOGO SYSTEM</text><text x="250" y="70" font-size="32" font-weight="300" font-family="monospace" fill="#e8e5de" text-anchor="start" letter-spacing="0">The </text><defs><linearGradient id="gb6326" x1="250" y1="74" x2="1150" y2="74" gradientUnits="userSpaceOnUse"><stop offset="0%" stop-color="#1c6fff"/><stop offset="32%" stop-color="#5535e0"/><stop offset="66%" stop-color="#e84520"/><stop offset="100%" stop-color="#f5a000"/></linearGradient></defs><rect x="250" y="74" width="900" height="2" fill="url(#gb6326)"/><rect x="258" y="100" width="170" height="190" fill="#111113" stroke="rgba(255,255,255,0.07)" stroke-width="1"/><text x="270" y="120" font-size="8" font-weight="normal" font-family="monospace" fill="#524f58" text-anchor="start" letter-spacing="0">A -- Gradient Dark</text><g transform="translate(295.0,150.0) scale(0.96)"><use href="#mark"/></g><text x="343" y="290" font-size="11" font-weight="500" font-family="monospace" fill="#e8e5de" text-anchor="middle" letter-spacing="0">OpenYantra</text><rect x="440" y="100" width="170" height="190" fill="#111113" stroke="rgba(255,255,255,0.07)" stroke-width="1"/><text x="452" y="120" font-size="8" font-weight="normal" font-family="monospace" fill="#524f58" text-anchor="start" letter-spacing="0">B -- Flat Blue</text><g transform="translate(477.0,150.0) scale(0.96)"><circle cx="50" cy="50" r="47" stroke="#1c6fff" stroke-width="1.5" fill="none"/><circle cx="50" cy="50" r="33" stroke="#1c6fff" stroke-width="1" fill="none" opacity="0.35"/><circle cx="50" cy="50" r="18" stroke="#1c6fff" stroke-width="0.8" fill="none" opacity="0.18"/><circle cx="50" cy="50" r="4" fill="#1c6fff"/><line x1="50" y1="3" x2="50" y2="97" stroke="#1c6fff" stroke-width="0.7" opacity="0.2"/><line x1="3" y1="50" x2="97" y2="50" stroke="#1c6fff" stroke-width="0.7" opacity="0.2"/><line x1="17" y1="17" x2="83" y2="83" stroke="#1c6fff" stroke-width="0.5" opacity="0.12"/><line x1="83" y1="17" x2="17" y2="83" stroke="#1c6fff" stroke-width="0.5" opacity="0.12"/><circle cx="50" cy="3" r="3" fill="#1c6fff"/><circle cx="97" cy="50" r="3" fill="#1c6fff"/><circle cx="50" cy="97" r="3" fill="#1c6fff"/><circle cx="3" cy="50" r="3" fill="#1c6fff"/><path d="M50 3 Q68 26 50 50 Q32 26 50 3" stroke="#1c6fff" stroke-width="0.8" fill="none" opacity="0.3"/><path d="M97 50 Q74 68 50 50 Q74 32 97 50" stroke="#1c6fff" stroke-width="0.8" fill="none" opacity="0.3"/><path d="M50 97 Q32 74 50 50 Q68 74 50 97" stroke="#1c6fff" stroke-width="0.8" fill="none" opacity="0.3"/><path d="M3 50 Q26 32 50 50 Q26 68 3 50" stroke="#1c6fff" stroke-width="0.8" fill="none" opacity="0.3"/></g><text x="525" y="290" font-size="11" font-weight="500" font-family="monospace" fill="#1c6fff" text-anchor="middle" letter-spacing="0">OpenYantra</text><rect x="622" y="100" width="170" height="190" fill="#111113" stroke="rgba(255,255,255,0.07)" stroke-width="1"/><text x="634" y="120" font-size="8" font-weight="normal" font-family="monospace" fill="#524f58" text-anchor="start" letter-spacing="0">C -- Mark Only</text><g transform="translate(652.0,143.0) scale(1.1)"><use href="#mark"/></g><rect x="804" y="100" width="170" height="190" fill="#efece5" stroke="rgba(255,255,255,0.07)" stroke-width="1"/><text x="816" y="120" font-size="8" font-weight="normal" font-family="monospace" fill="#9a9590" text-anchor="start" letter-spacing="0">D -- On Light</text><g transform="translate(841.0,150.0) scale(0.96)"><use href="#mark"/></g><text x="889" y="290" font-size="11" font-weight="500" font-family="monospace" fill="#1c6fff" text-anchor="middle" letter-spacing="0">OpenYantra</text><rect x="986" y="100" width="170" height="190" fill="#111113" stroke="rgba(255,255,255,0.07)" stroke-width="1"/><text x="998" y="120" font-size="8" font-weight="normal" font-family="monospace" fill="#524f58" text-anchor="start" letter-spacing="0">E -- Mono White</text><g transform="translate(1023.0,150.0) scale(0.96)"><circle cx="50" cy="50" r="47" stroke="rgba(255,255,255,0.65)" stroke-width="1.5" fill="none"/><circle cx="50" cy="50" r="33" stroke="rgba(255,255,255,0.25)" stroke-width="1" fill="none"/><circle cx="50" cy="50" r="18" stroke="rgba(255,255,255,0.12)" stroke-width="0.8" fill="none"/><circle cx="50" cy="50" r="4" fill="rgba(255,255,255,0.8)"/><line x1="50" y1="3" x2="50" y2="97" stroke="rgba(255,255,255,0.15)" stroke-width="0.7"/><line x1="3" y1="50" x2="97" y2="50" stroke="rgba(255,255,255,0.15)" stroke-width="0.7"/><circle cx="50" cy="3" r="2.5" fill="rgba(255,255,255,0.7)"/><circle cx="97" cy="50" r="2.5" fill="rgba(255,255,255,0.7)"/><circle cx="50" cy="97" r="2.5" fill="rgba(255,255,255,0.7)"/><circle cx="3" cy="50" r="2.5" fill="rgba(255,255,255,0.7)"/><path d="M50 3 Q68 26 50 50 Q32 26 50 3" stroke="rgba(255,255,255,0.25)" stroke-width="0.8" fill="none"/><path d="M97 50 Q74 68 50 50 Q74 32 97 50" stroke="rgba(255,255,255,0.25)" stroke-width="0.8" fill="none"/><path d="M50 97 Q32 74 50 50 Q68 74 50 97" stroke="rgba(255,255,255,0.25)" stroke-width="0.8" fill="none"/><path d="M3 50 Q26 32 50 50 Q26 68 3 50" stroke="rgba(255,255,255,0.25)" stroke-width="0.8" fill="none"/></g><text x="1071" y="290" font-size="11" font-weight="500" font-family="monospace" fill="rgba(255,255,255,0.85)" text-anchor="middle" letter-spacing="0">OpenYantra</text><text x="250" y="332" font-size="8" font-weight="normal" font-family="monospace" fill="#524f58" text-anchor="start" letter-spacing="2.5">03 / COLOR TOKENS</text><defs><linearGradient id="gb6805" x1="250" y1="340" x2="1260" y2="340" gradientUnits="userSpaceOnUse"><stop offset="0%" stop-color="#1c6fff"/><stop offset="32%" stop-color="#5535e0"/><stop offset="66%" stop-color="#e84520"/><stop offset="100%" stop-color="#f5a000"/></linearGradient></defs><rect x="250" y="340" width="1010" height="6" fill="url(#gb6805)"/><rect x="250" y="350" width="202" height="44" fill="#1c6fff"/><text x="264" y="370" font-size="11" font-weight="500" font-family="monospace" fill="#fff" text-anchor="start" letter-spacing="0">Yantra Blue</text><text x="264" y="386" font-size="8" font-weight="normal" font-family="monospace" fill="rgba(255,255,255,0.6)" text-anchor="start" letter-spacing="0">Primary</text><rect x="452" y="350" width="202" height="44" fill="#5535e0"/><text x="466" y="370" font-size="11" font-weight="500" font-family="monospace" fill="#fff" text-anchor="start" letter-spacing="0">Indigo</text><text x="466" y="386" font-size="8" font-weight="normal" font-family="monospace" fill="rgba(255,255,255,0.6)" text-anchor="start" letter-spacing="0">Writer/Hash</text><rect x="654" y="350" width="202" height="44" fill="#e84520"/><text x="668" y="370" font-size="11" font-weight="500" font-family="monospace" fill="#fff" text-anchor="start" letter-spacing="0">Coral</text><text x="668" y="386" font-size="8" font-weight="normal" font-family="monospace" fill="rgba(255,255,255,0.6)" text-anchor="start" letter-spacing="0">Alert/Prompt</text><rect x="856" y="350" width="202" height="44" fill="#f5a000"/><text x="870" y="370" font-size="11" font-weight="500" font-family="monospace" fill="#fff" text-anchor="start" letter-spacing="0">Amber</text><text x="870" y="386" font-size="8" font-weight="normal" font-family="monospace" fill="rgba(255,255,255,0.6)" text-anchor="start" letter-spacing="0">Queue/Cmd</text><rect x="1058" y="350" width="202" height="44" fill="#1aa167"/><text x="1072" y="370" font-size="11" font-weight="500" font-family="monospace" fill="#fff" text-anchor="start" letter-spacing="0">Green</text><text x="1072" y="386" font-size="8" font-weight="normal" font-family="monospace" fill="rgba(255,255,255,0.6)" text-anchor="start" letter-spacing="0">Status OK</text><rect x="0" y="690" width="1280" height="30" fill="#111113"/><rect x="0" y="690" width="1280" height="1" fill="rgba(255,255,255,0.07)"/><text x="640" y="710" font-size="9" font-weight="normal" font-family="monospace" fill="#524f58" text-anchor="middle" letter-spacing="0">DNA: Teenage Engineering + Sarvam AI  ·  IBM Plex Mono  ·  OpenYantra v3.0.0  ·  MIT License</text></svg>