<svg xmlns="http://www.w3.org/2000/svg" viewBox="0 0 1280 800" width="1280" height="800"><defs>
  <linearGradient id="grad" x1="0" y1="0" x2="1" y2="0">
    <stop offset="0%" stop-color="#1c6fff"/>
    <stop offset="32%" stop-color="#5535e0"/>
    <stop offset="66%" stop-color="#e84520"/>
    <stop offset="100%" stop-color="#f5a000"/>
  </linearGradient>
  <linearGradient id="mG" x1="0" y1="0" x2="100" y2="100" gradientUnits="userSpaceOnUse">
    <stop offset="0%" stop-color="#1c6fff"/>
    <stop offset="33%" stop-color="#5535e0"/>
    <stop offset="66%" stop-color="#e84520"/>
    <stop offset="100%" stop-color="#f5a000"/>
  </linearGradient>
  <pattern id="gp" width="32" height="32" patternUnits="userSpaceOnUse">
    <path d="M32 0L0 0 0 32" fill="none" stroke="rgba(255,255,255,0.017)" stroke-width="1"/>
  </pattern>
  <!-- CANONICAL MARK — exact from brand-manual.html -->
  <g id="mark">
    <circle cx="50" cy="50" r="47" stroke="url(#mG)" stroke-width="1.5" fill="none"/>
    <circle cx="50" cy="50" r="33" stroke="url(#mG)" stroke-width="1" fill="none" opacity="0.5"/>
    <circle cx="50" cy="50" r="18" stroke="url(#mG)" stroke-width="0.8" fill="none" opacity="0.3"/>
    <circle cx="50" cy="50" r="4" fill="url(#mG)"/>
    <line x1="50" y1="3"  x2="50" y2="97" stroke="url(#mG)" stroke-width="0.7" opacity="0.2"/>
    <line x1="3"  y1="50" x2="97" y2="50" stroke="url(#mG)" stroke-width="0.7" opacity="0.2"/>
    <line x1="17" y1="17" x2="83" y2="83" stroke="url(#mG)" stroke-width="0.5" opacity="0.12"/>
    <line x1="83" y1="17" x2="17" y2="83" stroke="url(#mG)" stroke-width="0.5" opacity="0.12"/>
    <circle cx="50" cy="3"  r="3" fill="#1c6fff"/>
    <circle cx="97" cy="50" r="3" fill="#5535e0"/>
    <circle cx="50" cy="97" r="3" fill="#e84520"/>
    <circle cx="3"  cy="50" r="3" fill="#f5a000"/>
    <path d="M50 3 Q68 26 50 50 Q32 26 50 3"   stroke="url(#mG)" stroke-width="0.9" fill="none" opacity="0.45"/>
    <path d="M97 50 Q74 68 50 50 Q74 32 97 50"  stroke="url(#mG)" stroke-width="0.9" fill="none" opacity="0.45"/>
    <path d="M50 97 Q32 74 50 50 Q68 74 50 97"  stroke="url(#mG)" stroke-width="0.9" fill="none" opacity="0.45"/>
    <path d="M3 50 Q26 32 50 50 Q26 68 3 50"    stroke="url(#mG)" stroke-width="0.9" fill="none" opacity="0.45"/>
    <path d="M17 17 Q38 38 50 50 Q29 29 17 17"  stroke="url(#mG)" stroke-width="0.6" fill="none" opacity="0.22"/>
    <path d="M83 17 Q62 38 50 50 Q71 29 83 17"  stroke="url(#mG)" stroke-width="0.6" fill="none" opacity="0.22"/>
    <path d="M83 83 Q62 62 50 50 Q71 71 83 83"  stroke="url(#mG)" stroke-width="0.6" fill="none" opacity="0.22"/>
    <path d="M17 83 Q38 62 50 50 Q29 71 17 83"  stroke="url(#mG)" stroke-width="0.6" fill="none" opacity="0.22"/>
  </g>
</defs><rect width="1280" height="800" fill="#0a0a0b"/><rect width="1280" height="800" fill="url(#gp)"/><rect width="1280" height="38" fill="#111113"/><circle cx="16" cy="19" r="5.5" fill="#ff5f57"/><circle cx="32" cy="19" r="5.5" fill="#febc2e"/><circle cx="48" cy="19" r="5.5" fill="#28c840"/><text x="640" y="24" text-anchor="middle" font-size="11" font-family="monospace" fill="#524f58" letter-spacing="1">localhost:7331 -- OpenYantra v3.0.0</text><defs><linearGradient id="gb5218" x1="0" y1="38" x2="1280" y2="38" gradientUnits="userSpaceOnUse"><stop offset="0%" stop-color="#1c6fff"/><stop offset="32%" stop-color="#5535e0"/><stop offset="66%" stop-color="#e84520"/><stop offset="100%" stop-color="#f5a000"/></linearGradient></defs><rect x="0" y="38" width="1280" height="2" fill="url(#gb5218)"/><rect x="0" y="40" width="190" height="760" fill="rgba(9,9,10,0.98)"/>
<rect x="190" y="40" width="1" height="760" fill="rgba(255,255,255,0.07)"/>
<g transform="translate(13.0,55.0) scale(0.22)"><use href="#mark"/></g>
<text x="42" y="63" font-size="11" font-weight="500" font-family="monospace" fill="#e8e5de">OpenYantra</text>
<text x="42" y="75" font-size="8" font-family="monospace" fill="#524f58" letter-spacing="1.5">V3.0.0</text>
<rect x="0" y="86" width="190" height="1" fill="rgba(255,255,255,0.07)"/>
<text x="14" y="102" font-size="11" font-family="monospace" fill="#524f58">🌅 Today</text>
<text x="14" y="124" font-size="11" font-family="monospace" fill="#524f58">📥 Inbox</text>
<text x="14" y="146" font-size="11" font-family="monospace" fill="#524f58">🚀 Projects</text>
<text x="14" y="168" font-size="11" font-family="monospace" fill="#524f58">🔓 Open Loops</text>
<text x="14" y="190" font-size="11" font-family="monospace" fill="#524f58">✅ Tasks</text>
<text x="14" y="212" font-size="11" font-family="monospace" fill="#524f58">🎯 Goals</text>
<rect x="0" y="220" width="3" height="22" fill="#f5a000"/>
<rect x="0" y="220" width="190" height="22" fill="rgba(255,255,255,0.02)"/>
<text x="14" y="234" font-size="11" font-family="monospace" fill="#e8e5de">📅 Timeline</text>
<text x="14" y="256" font-size="11" font-family="monospace" fill="#524f58">⚡ Conflicts</text>
<text x="14" y="278" font-size="11" font-family="monospace" fill="#524f58">🔒 Security</text>
<text x="14" y="300" font-size="11" font-family="monospace" fill="#524f58">📒 Ledger</text>
<text x="14" y="322" font-size="11" font-family="monospace" fill="#524f58">💚 Health</text>
<text x="14" y="344" font-size="11" font-family="monospace" fill="#524f58">📊 Stats</text>
<rect x="0" y="760" width="190" height="40" fill="rgba(9,9,10,0.98)"/>
<rect x="0" y="760" width="190" height="1" fill="rgba(255,255,255,0.07)"/>
<circle cx="18" cy="776" r="3.5" fill="#1aa167"/>
<text x="28" y="779" font-size="9" font-family="monospace" fill="#1aa167">Chitrapat active</text>
<text x="14" y="793" font-size="8" font-family="monospace" fill="#242228">SQLite WAL backend</text><rect x="190" y="40" width="1090" height="44" fill="#111113"/><rect x="190" y="84" width="1090" height="1" fill="rgba(255,255,255,0.07)"/><text x="210" y="67" font-size="13" font-weight="500" font-family="monospace" fill="#e8e5de">📅 Timeline -- Activity Feed</text><text x="1218" y="67" font-size="9" font-weight="normal" font-family="monospace" fill="#524f58" text-anchor="end" letter-spacing="0">489 total entries</text><rect x="228" y="110" width="2" height="660" fill="#242228"/><circle cx="229" cy="125" r="5" fill="#1c6fff"/><rect x="248" y="112" width="1020" height="50" fill="#111113" stroke="rgba(255,255,255,0.07)" stroke-width="1"/><text x="264" y="130" font-size="9" font-weight="normal" font-family="monospace" fill="#1c6fff" text-anchor="start" letter-spacing="0">Chitragupta · add · 🚀 Projects</text><text x="264" y="148" font-size="10" font-weight="normal" font-family="monospace" fill="#e8e5de" text-anchor="start" letter-spacing="0">OpenYantra v3 Docs -- Next: DEPLOYMENT.md</text><text x="1218" y="148" font-size="9" font-weight="normal" font-family="monospace" fill="#524f58" text-anchor="end" letter-spacing="0">09:41:22</text><text x="264" y="161" font-size="8" font-weight="normal" font-family="monospace" fill="#5535e0" text-anchor="start" letter-spacing="0">#a3f9d2c1 · SHA-256: ok</text><circle cx="229" cy="193" r="5" fill="#f5a000"/><rect x="248" y="180" width="1020" height="50" fill="#111113" stroke="rgba(255,255,255,0.07)" stroke-width="1"/><text x="264" y="198" font-size="9" font-weight="normal" font-family="monospace" fill="#f5a000" text-anchor="start" letter-spacing="0">Chitragupta · inbox · 📥 Inbox</text><text x="264" y="216" font-size="10" font-weight="normal" font-family="monospace" fill="#e8e5de" text-anchor="start" letter-spacing="0">Priya confirmed budget revision needed by Friday</text><text x="1218" y="216" font-size="9" font-weight="normal" font-family="monospace" fill="#524f58" text-anchor="end" letter-spacing="0">09:38:11</text><text x="264" y="229" font-size="8" font-weight="normal" font-family="monospace" fill="#5535e0" text-anchor="start" letter-spacing="0">#b9e124a0 · SHA-256: ok</text><circle cx="229" cy="261" r="5" fill="#1aa167"/><rect x="248" y="248" width="1020" height="50" fill="#111113" stroke="rgba(255,255,255,0.07)" stroke-width="1"/><text x="264" y="266" font-size="9" font-weight="normal" font-family="monospace" fill="#1aa167" text-anchor="start" letter-spacing="0">Chitragupta · resolve · 🔓 Open Loops</text><text x="264" y="284" font-size="10" font-weight="normal" font-family="monospace" fill="#e8e5de" text-anchor="start" letter-spacing="0">Resolved: Test portalocker integration -- done</text><text x="1218" y="284" font-size="9" font-weight="normal" font-family="monospace" fill="#524f58" text-anchor="end" letter-spacing="0">09:22:48</text><text x="264" y="297" font-size="8" font-weight="normal" font-family="monospace" fill="#5535e0" text-anchor="start" letter-spacing="0">#c1d3e5f7 · SHA-256: ok</text><circle cx="229" cy="329" r="5" fill="#e84520"/><rect x="248" y="316" width="1020" height="50" fill="#111113" stroke="rgba(255,255,255,0.07)" stroke-width="1"/><text x="264" y="334" font-size="9" font-weight="normal" font-family="monospace" fill="#e84520" text-anchor="start" letter-spacing="0">Chitragupta · add · 🔓 Open Loops</text><text x="264" y="352" font-size="10" font-weight="normal" font-family="monospace" fill="#e8e5de" text-anchor="start" letter-spacing="0">Add SHA-256 signature tests to test suite</text><text x="1218" y="352" font-size="9" font-weight="normal" font-family="monospace" fill="#524f58" text-anchor="end" letter-spacing="0">09:18:03</text><text x="264" y="365" font-size="8" font-weight="normal" font-family="monospace" fill="#5535e0" text-anchor="start" letter-spacing="0">#d4e6f8a2 · SHA-256: ok</text><circle cx="229" cy="397" r="5" fill="#5535e0"/><rect x="248" y="384" width="1020" height="50" fill="#111113" stroke="rgba(255,255,255,0.07)" stroke-width="1"/><text x="264" y="402" font-size="9" font-weight="normal" font-family="monospace" fill="#5535e0" text-anchor="start" letter-spacing="0">Chitragupta · update · 💡 Preferences</text><text x="264" y="420" font-size="10" font-weight="normal" font-family="monospace" fill="#e8e5de" text-anchor="start" letter-spacing="0">Communication: direct -- updated from session</text><text x="1218" y="420" font-size="9" font-weight="normal" font-family="monospace" fill="#524f58" text-anchor="end" letter-spacing="0">09:12:44</text><text x="264" y="433" font-size="8" font-weight="normal" font-family="monospace" fill="#5535e0" text-anchor="start" letter-spacing="0">#e5f7b3c1 · SHA-256: ok</text><circle cx="229" cy="465" r="5" fill="#1c6fff"/><rect x="248" y="452" width="1020" height="50" fill="#111113" stroke="rgba(255,255,255,0.07)" stroke-width="1"/><text x="264" y="470" font-size="9" font-weight="normal" font-family="monospace" fill="#1c6fff" text-anchor="start" letter-spacing="0">Chitragupta · add · 📅 Session Log</text><text x="264" y="488" font-size="10" font-weight="normal" font-family="monospace" fill="#e8e5de" text-anchor="start" letter-spacing="0">Session: v3.0.0 launch prep · Decisions: tag and push</text><text x="1218" y="488" font-size="9" font-weight="normal" font-family="monospace" fill="#524f58" text-anchor="end" letter-spacing="0">09:00:01</text><text x="264" y="501" font-size="8" font-weight="normal" font-family="monospace" fill="#5535e0" text-anchor="start" letter-spacing="0">#f6a8c2d4 · SHA-256: ok</text><rect x="210" y="540" width="1050" height="44" fill="#111113" stroke="rgba(255,255,255,0.07)" stroke-width="1"/><defs><linearGradient id="gb2338" x1="210" y1="540" x2="1260" y2="540" gradientUnits="userSpaceOnUse"><stop offset="0%" stop-color="#1c6fff"/><stop offset="32%" stop-color="#5535e0"/><stop offset="66%" stop-color="#e84520"/><stop offset="100%" stop-color="#f5a000"/></linearGradient></defs><rect x="210" y="540" width="1050" height="2" fill="url(#gb2338)"/><text x="228" y="560" font-size="9" font-weight="normal" font-family="monospace" fill="#524f58" text-anchor="start" letter-spacing="1.5">LEDGER STATS</text><text x="228" y="576" font-size="9" font-weight="normal" font-family="monospace" fill="#524f58" text-anchor="start" letter-spacing="0">Total writes: </text><text x="318" y="576" font-size="9" font-weight="normal" font-family="monospace" fill="#e8e5de" text-anchor="start" letter-spacing="0">489</text><text x="360" y="576" font-size="9" font-weight="normal" font-family="monospace" fill="#524f58" text-anchor="start" letter-spacing="0">  Today: </text><text x="416" y="576" font-size="9" font-weight="normal" font-family="monospace" fill="#1c6fff" text-anchor="start" letter-spacing="0">6</text><text x="432" y="576" font-size="9" font-weight="normal" font-family="monospace" fill="#524f58" text-anchor="start" letter-spacing="0">  This week: </text><text x="514" y="576" font-size="9" font-weight="normal" font-family="monospace" fill="#f5a000" text-anchor="start" letter-spacing="0">38</text><text x="542" y="576" font-size="9" font-weight="normal" font-family="monospace" fill="#524f58" text-anchor="start" letter-spacing="0">  Signatures valid: </text><text x="662" y="576" font-size="9" font-weight="normal" font-family="monospace" fill="#1aa167" text-anchor="start" letter-spacing="0">489/489</text></svg>