<svg xmlns="http://www.w3.org/2000/svg" viewBox="0 0 1280 720" width="1280" height="720"><defs>
  <linearGradient id="grad" x1="0" y1="0" x2="1" y2="0">
    <stop offset="0%" stop-color="#1c6fff"/>
    <stop offset="32%" stop-color="#5535e0"/>
    <stop offset="66%" stop-color="#e84520"/>
    <stop offset="100%" stop-color="#f5a000"/>
  </linearGradient>
  <linearGradient id="mG" x1="0" y1="0" x2="100" y2="100" gradientUnits="userSpaceOnUse">
    <stop offset="0%" stop-color="#1c6fff"/>
    <stop offset="33%" stop-color="#5535e0"/>
    <stop offset="66%" stop-color="#e84520"/>
    <stop offset="100%" stop-color="#f5a000"/>
  </linearGradient>
  <pattern id="gp" width="32" height="32" patternUnits="userSpaceOnUse">
    <path d="M32 0L0 0 0 32" fill="none" stroke="rgba(255,255,255,0.017)" stroke-width="1"/>
  </pattern>
  <!-- CANONICAL MARK — exact from brand-manual.html -->
  <g id="mark">
    <circle cx="50" cy="50" r="47" stroke="url(#mG)" stroke-width="1.5" fill="none"/>
    <circle cx="50" cy="50" r="33" stroke="url(#mG)" stroke-width="1" fill="none" opacity="0.5"/>
    <circle cx="50" cy="50" r="18" stroke="url(#mG)" stroke-width="0.8" fill="none" opacity="0.3"/>
    <circle cx="50" cy="50" r="4" fill="url(#mG)"/>
    <line x1="50" y1="3"  x2="50" y2="97" stroke="url(#mG)" stroke-width="0.7" opacity="0.2"/>
    <line x1="3"  y1="50" x2="97" y2="50" stroke="url(#mG)" stroke-width="0.7" opacity="0.2"/>
    <line x1="17" y1="17" x2="83" y2="83" stroke="url(#mG)" stroke-width="0.5" opacity="0.12"/>
    <line x1="83" y1="17" x2="17" y2="83" stroke="url(#mG)" stroke-width="0.5" opacity="0.12"/>
    <circle cx="50" cy="3"  r="3" fill="#1c6fff"/>
    <circle cx="97" cy="50" r="3" fill="#5535e0"/>
    <circle cx="50" cy="97" r="3" fill="#e84520"/>
    <circle cx="3"  cy="50" r="3" fill="#f5a000"/>
    <path d="M50 3 Q68 26 50 50 Q32 26 50 3"   stroke="url(#mG)" stroke-width="0.9" fill="none" opacity="0.45"/>
    <path d="M97 50 Q74 68 50 50 Q74 32 97 50"  stroke="url(#mG)" stroke-width="0.9" fill="none" opacity="0.45"/>
    <path d="M50 97 Q32 74 50 50 Q68 74 50 97"  stroke="url(#mG)" stroke-width="0.9" fill="none" opacity="0.45"/>
    <path d="M3 50 Q26 32 50 50 Q26 68 3 50"    stroke="url(#mG)" stroke-width="0.9" fill="none" opacity="0.45"/>
    <path d="M17 17 Q38 38 50 50 Q29 29 17 17"  stroke="url(#mG)" stroke-width="0.6" fill="none" opacity="0.22"/>
    <path d="M83 17 Q62 38 50 50 Q71 29 83 17"  stroke="url(#mG)" stroke-width="0.6" fill="none" opacity="0.22"/>
    <path d="M83 83 Q62 62 50 50 Q71 71 83 83"  stroke="url(#mG)" stroke-width="0.6" fill="none" opacity="0.22"/>
    <path d="M17 83 Q38 62 50 50 Q29 71 17 83"  stroke="url(#mG)" stroke-width="0.6" fill="none" opacity="0.22"/>
  </g>
</defs><rect width="1280" height="720" fill="#0a0a0b"/><rect width="1280" height="720" fill="url(#gp)"/><defs><linearGradient id="gb810" x1="0" y1="0" x2="1280" y2="0" gradientUnits="userSpaceOnUse"><stop offset="0%" stop-color="#1c6fff"/><stop offset="32%" stop-color="#5535e0"/><stop offset="66%" stop-color="#e84520"/><stop offset="100%" stop-color="#f5a000"/></linearGradient></defs><rect x="0" y="0" width="1280" height="3" fill="url(#gb810)"/><rect width="1280" height="48" fill="rgba(10,10,11,0.9)"/><rect x="0" y="48" width="1280" height="1" fill="rgba(255,255,255,0.07)"/><g transform="translate(17.0,11.0) scale(0.26)"><use href="#mark"/></g><text x="52" y="22" font-size="12" font-weight="500" font-family="monospace" fill="#e8e5de" text-anchor="start" letter-spacing="0">OpenYantra</text><text x="52" y="36" font-size="8" font-weight="normal" font-family="monospace" fill="#524f58" text-anchor="start" letter-spacing="1">VISUAL GUIDE</text><text x="200" y="29" font-size="10" font-weight="normal" font-family="monospace" fill="#524f58" text-anchor="start" letter-spacing="1">01 Logo</text><text x="330" y="29" font-size="10" font-weight="normal" font-family="monospace" fill="#524f58" text-anchor="start" letter-spacing="1">02 Color</text><text x="460" y="29" font-size="10" font-weight="normal" font-family="monospace" fill="#524f58" text-anchor="start" letter-spacing="1">03 Type</text><text x="590" y="29" font-size="10" font-weight="normal" font-family="monospace" fill="#524f58" text-anchor="start" letter-spacing="1">04 Icons</text><text x="720" y="29" font-size="10" font-weight="normal" font-family="monospace" fill="#524f58" text-anchor="start" letter-spacing="1">05 UI Preview</text><text x="850" y="29" font-size="10" font-weight="normal" font-family="monospace" fill="#524f58" text-anchor="start" letter-spacing="1">06 Components</text><text x="980" y="29" font-size="10" font-weight="normal" font-family="monospace" fill="#524f58" text-anchor="start" letter-spacing="1">07 CLI Theme</text><text x="1110" y="29" font-size="10" font-weight="normal" font-family="monospace" fill="#524f58" text-anchor="start" letter-spacing="1">08 Brand Assets</text><text x="40" y="88" font-size="8" font-weight="normal" font-family="monospace" fill="#524f58" text-anchor="start" letter-spacing="2.5">01 / LOGO MARK</text><rect x="40" y="96" width="1200" height="1" fill="rgba(255,255,255,0.07)"/><rect x="40" y="104" width="180" height="130" fill="#111113" stroke="rgba(255,255,255,0.07)" stroke-width="1"/><text x="52" y="122" font-size="8" font-weight="normal" font-family="monospace" fill="#524f58" text-anchor="start" letter-spacing="0">A -- Gradient Dark</text><g transform="translate(90.0,135.0) scale(0.8)"><use href="#mark"/></g><text x="130" y="225" font-size="10" font-weight="500" font-family="monospace" fill="#e8e5de" text-anchor="middle" letter-spacing="0">OpenYantra</text><rect x="230" y="104" width="180" height="130" fill="#111113" stroke="rgba(255,255,255,0.07)" stroke-width="1"/><text x="242" y="122" font-size="8" font-weight="normal" font-family="monospace" fill="#524f58" text-anchor="start" letter-spacing="0">B -- Flat Blue</text><g transform="translate(280.0,135.0) scale(0.8)"><circle cx="50" cy="50" r="47" stroke="#1c6fff" stroke-width="1.5" fill="none"/><circle cx="50" cy="50" r="33" stroke="#1c6fff" stroke-width="1" fill="none" opacity="0.35"/><circle cx="50" cy="50" r="4" fill="#1c6fff"/><circle cx="50" cy="3" r="3" fill="#1c6fff"/><circle cx="97" cy="50" r="3" fill="#1c6fff"/><circle cx="50" cy="97" r="3" fill="#1c6fff"/><circle cx="3" cy="50" r="3" fill="#1c6fff"/><path d="M50 3 Q68 26 50 50 Q32 26 50 3" stroke="#1c6fff" stroke-width="0.8" fill="none" opacity="0.3"/><path d="M97 50 Q74 68 50 50 Q74 32 97 50" stroke="#1c6fff" stroke-width="0.8" fill="none" opacity="0.3"/><path d="M50 97 Q32 74 50 50 Q68 74 50 97" stroke="#1c6fff" stroke-width="0.8" fill="none" opacity="0.3"/><path d="M3 50 Q26 32 50 50 Q26 68 3 50" stroke="#1c6fff" stroke-width="0.8" fill="none" opacity="0.3"/></g><text x="320" y="225" font-size="10" font-weight="500" font-family="monospace" fill="#1c6fff" text-anchor="middle" letter-spacing="0">OpenYantra</text><rect x="420" y="104" width="180" height="130" fill="#efece5" stroke="rgba(255,255,255,0.07)" stroke-width="1"/><text x="432" y="122" font-size="8" font-weight="normal" font-family="monospace" fill="#9a9590" text-anchor="start" letter-spacing="0">C -- On Light</text><g transform="translate(470.0,135.0) scale(0.8)"><use href="#mark"/></g><text x="510" y="225" font-size="10" font-weight="500" font-family="monospace" fill="#e8e5de" text-anchor="middle" letter-spacing="0">OpenYantra</text><rect x="610" y="104" width="180" height="130" fill="#111113" stroke="rgba(255,255,255,0.07)" stroke-width="1"/><text x="622" y="122" font-size="8" font-weight="normal" font-family="monospace" fill="#524f58" text-anchor="start" letter-spacing="0">D -- Mark Only</text><g transform="translate(660.0,135.0) scale(0.8)"><use href="#mark"/></g><text x="40" y="252" font-size="8" font-weight="normal" font-family="monospace" fill="#524f58" text-anchor="start" letter-spacing="2.5">02 / COLOR SYSTEM</text><rect x="40" y="260" width="1200" height="1" fill="rgba(255,255,255,0.07)"/><defs><linearGradient id="gb2086" x1="40" y1="268" x2="1240" y2="268" gradientUnits="userSpaceOnUse"><stop offset="0%" stop-color="#1c6fff"/><stop offset="32%" stop-color="#5535e0"/><stop offset="66%" stop-color="#e84520"/><stop offset="100%" stop-color="#f5a000"/></linearGradient></defs><rect x="40" y="268" width="1200" height="6" fill="url(#gb2086)"/><rect x="40" y="278" width="240" height="50" fill="#1c6fff"/><text x="54" y="298" font-size="11" font-weight="500" font-family="monospace" fill="#fff" text-anchor="start" letter-spacing="0">Yantra Blue</text><text x="54" y="314" font-size="8" font-weight="normal" font-family="monospace" fill="rgba(255,255,255,0.6)" text-anchor="start" letter-spacing="0">Primary</text><rect x="280" y="278" width="240" height="50" fill="#5535e0"/><text x="294" y="298" font-size="11" font-weight="500" font-family="monospace" fill="#fff" text-anchor="start" letter-spacing="0">Indigo</text><text x="294" y="314" font-size="8" font-weight="normal" font-family="monospace" fill="rgba(255,255,255,0.6)" text-anchor="start" letter-spacing="0">Writer</text><rect x="520" y="278" width="240" height="50" fill="#e84520"/><text x="534" y="298" font-size="11" font-weight="500" font-family="monospace" fill="#fff" text-anchor="start" letter-spacing="0">Coral</text><text x="534" y="314" font-size="8" font-weight="normal" font-family="monospace" fill="rgba(255,255,255,0.6)" text-anchor="start" letter-spacing="0">Alert</text><rect x="760" y="278" width="240" height="50" fill="#f5a000"/><text x="774" y="298" font-size="11" font-weight="500" font-family="monospace" fill="#fff" text-anchor="start" letter-spacing="0">Amber</text><text x="774" y="314" font-size="8" font-weight="normal" font-family="monospace" fill="rgba(255,255,255,0.6)" text-anchor="start" letter-spacing="0">Queue</text><rect x="1000" y="278" width="240" height="50" fill="#1aa167"/><text x="1014" y="298" font-size="11" font-weight="500" font-family="monospace" fill="#fff" text-anchor="start" letter-spacing="0">Green</text><text x="1014" y="314" font-size="8" font-weight="normal" font-family="monospace" fill="rgba(255,255,255,0.6)" text-anchor="start" letter-spacing="0">OK</text><text x="40" y="356" font-size="8" font-weight="normal" font-family="monospace" fill="#524f58" text-anchor="start" letter-spacing="2.5">03 / TYPE SCALE</text><rect x="40" y="364" width="1200" height="1" fill="rgba(255,255,255,0.07)"/><text x="40" y="414" font-size="44" font-weight="300" font-family="monospace" fill="#e8e5de" text-anchor="start" letter-spacing="0">Open</text><text x="130" y="414" font-size="44" font-weight="600" font-family="monospace" fill="#e8e5de" text-anchor="start" letter-spacing="0">Yantra</text><text x="40" y="452" font-size="22" font-weight="300" font-family="monospace" fill="#e8e5de" text-anchor="start" letter-spacing="0">Personal Cognition Ledger</text><text x="40" y="480" font-size="14" font-weight="500" font-family="monospace" fill="#e8e5de" text-anchor="start" letter-spacing="0">Chitrapat.ods -- Memory State Active</text><text x="40" y="500" font-size="10" font-weight="normal" font-family="monospace" fill="#524f58" text-anchor="start" letter-spacing="2">SINGLE WRITER RULE -- LEDGERAGENT</text><text x="40" y="520" font-size="12" font-weight="normal" font-family="monospace" fill="#524f58" text-anchor="start" letter-spacing="0">$ yantra inbox "idea" -- #a3f9d2c1 -- 2ms</text><text x="40" y="566" font-size="8" font-weight="normal" font-family="monospace" fill="#524f58" text-anchor="start" letter-spacing="2.5">04 / DOMAIN ICONS</text><rect x="40" y="574" width="1200" height="1" fill="rgba(255,255,255,0.07)"/><circle cx="80" cy="640" r="16" stroke="#1c6fff" stroke-width="1.2" fill="none"/><text x="80" y="680" font-size="8" font-weight="normal" font-family="monospace" fill="#524f58" text-anchor="middle" letter-spacing="0">Identity</text><circle cx="230" cy="640" r="16" stroke="#5535e0" stroke-width="1.2" fill="none"/><text x="230" y="680" font-size="8" font-weight="normal" font-family="monospace" fill="#524f58" text-anchor="middle" letter-spacing="0">SessionLog</text><circle cx="380" cy="640" r="16" stroke="#e84520" stroke-width="1.2" fill="none"/><text x="380" y="680" font-size="8" font-weight="normal" font-family="monospace" fill="#524f58" text-anchor="middle" letter-spacing="0">Inbox</text><circle cx="530" cy="640" r="16" stroke="#f5a000" stroke-width="1.2" fill="none"/><text x="530" y="680" font-size="8" font-weight="normal" font-family="monospace" fill="#524f58" text-anchor="middle" letter-spacing="0">Tasks</text><circle cx="680" cy="640" r="16" stroke="#1aa167" stroke-width="1.2" fill="none"/><text x="680" y="680" font-size="8" font-weight="normal" font-family="monospace" fill="#524f58" text-anchor="middle" letter-spacing="0">Goals</text><circle cx="830" cy="640" r="16" stroke="#1c6fff" stroke-width="1.2" fill="none"/><text x="830" y="680" font-size="8" font-weight="normal" font-family="monospace" fill="#524f58" text-anchor="middle" letter-spacing="0">Beliefs</text><circle cx="980" cy="640" r="16" stroke="#5535e0" stroke-width="1.2" fill="none"/><text x="980" y="680" font-size="8" font-weight="normal" font-family="monospace" fill="#524f58" text-anchor="middle" letter-spacing="0">People</text><circle cx="1130" cy="640" r="16" stroke="#e84520" stroke-width="1.2" fill="none"/><text x="1130" y="680" font-size="8" font-weight="normal" font-family="monospace" fill="#524f58" text-anchor="middle" letter-spacing="0">OpenLoops</text><rect x="0" y="690" width="1280" height="30" fill="#111113"/><rect x="0" y="690" width="1280" height="1" fill="rgba(255,255,255,0.07)"/><text x="640" y="710" font-size="9" font-weight="normal" font-family="monospace" fill="#524f58" text-anchor="middle" letter-spacing="0">OpenYantra v3.0.0 -- Visual Reference Guide -- Built in Hyderabad, India -- MIT License</text></svg>