<svg xmlns="http://www.w3.org/2000/svg" viewBox="0 0 1280 800" width="1280" height="800"><defs>
  <linearGradient id="grad" x1="0" y1="0" x2="1" y2="0">
    <stop offset="0%" stop-color="#1c6fff"/>
    <stop offset="32%" stop-color="#5535e0"/>
    <stop offset="66%" stop-color="#e84520"/>
    <stop offset="100%" stop-color="#f5a000"/>
  </linearGradient>
  <linearGradient id="mG" x1="0" y1="0" x2="100" y2="100" gradientUnits="userSpaceOnUse">
    <stop offset="0%" stop-color="#1c6fff"/>
    <stop offset="33%" stop-color="#5535e0"/>
    <stop offset="66%" stop-color="#e84520"/>
    <stop offset="100%" stop-color="#f5a000"/>
  </linearGradient>
  <pattern id="gp" width="32" height="32" patternUnits="userSpaceOnUse">
    <path d="M32 0L0 0 0 32" fill="none" stroke="rgba(255,255,255,0.017)" stroke-width="1"/>
  </pattern>
  <!-- CANONICAL MARK — exact from brand-manual.html -->
  <g id="mark">
    <circle cx="50" cy="50" r="47" stroke="url(#mG)" stroke-width="1.5" fill="none"/>
    <circle cx="50" cy="50" r="33" stroke="url(#mG)" stroke-width="1" fill="none" opacity="0.5"/>
    <circle cx="50" cy="50" r="18" stroke="url(#mG)" stroke-width="0.8" fill="none" opacity="0.3"/>
    <circle cx="50" cy="50" r="4" fill="url(#mG)"/>
    <line x1="50" y1="3"  x2="50" y2="97" stroke="url(#mG)" stroke-width="0.7" opacity="0.2"/>
    <line x1="3"  y1="50" x2="97" y2="50" stroke="url(#mG)" stroke-width="0.7" opacity="0.2"/>
    <line x1="17" y1="17" x2="83" y2="83" stroke="url(#mG)" stroke-width="0.5" opacity="0.12"/>
    <line x1="83" y1="17" x2="17" y2="83" stroke="url(#mG)" stroke-width="0.5" opacity="0.12"/>
    <circle cx="50" cy="3"  r="3" fill="#1c6fff"/>
    <circle cx="97" cy="50" r="3" fill="#5535e0"/>
    <circle cx="50" cy="97" r="3" fill="#e84520"/>
    <circle cx="3"  cy="50" r="3" fill="#f5a000"/>
    <path d="M50 3 Q68 26 50 50 Q32 26 50 3"   stroke="url(#mG)" stroke-width="0.9" fill="none" opacity="0.45"/>
    <path d="M97 50 Q74 68 50 50 Q74 32 97 50"  stroke="url(#mG)" stroke-width="0.9" fill="none" opacity="0.45"/>
    <path d="M50 97 Q32 74 50 50 Q68 74 50 97"  stroke="url(#mG)" stroke-width="0.9" fill="none" opacity="0.45"/>
    <path d="M3 50 Q26 32 50 50 Q26 68 3 50"    stroke="url(#mG)" stroke-width="0.9" fill="none" opacity="0.45"/>
    <path d="M17 17 Q38 38 50 50 Q29 29 17 17"  stroke="url(#mG)" stroke-width="0.6" fill="none" opacity="0.22"/>
    <path d="M83 17 Q62 38 50 50 Q71 29 83 17"  stroke="url(#mG)" stroke-width="0.6" fill="none" opacity="0.22"/>
    <path d="M83 83 Q62 62 50 50 Q71 71 83 83"  stroke="url(#mG)" stroke-width="0.6" fill="none" opacity="0.22"/>
    <path d="M17 83 Q38 62 50 50 Q29 71 17 83"  stroke="url(#mG)" stroke-width="0.6" fill="none" opacity="0.22"/>
  </g>
</defs><rect width="1280" height="800" fill="#0a0a0b"/><rect width="1280" height="800" fill="url(#gp)"/><rect width="1280" height="38" fill="#111113"/><circle cx="16" cy="19" r="5.5" fill="#ff5f57"/><circle cx="32" cy="19" r="5.5" fill="#febc2e"/><circle cx="48" cy="19" r="5.5" fill="#28c840"/><text x="640" y="24" text-anchor="middle" font-size="11" font-family="monospace" fill="#524f58" letter-spacing="1">localhost:7331 -- OpenYantra v3.0.0</text><defs><linearGradient id="gb5218" x1="0" y1="38" x2="1280" y2="38" gradientUnits="userSpaceOnUse"><stop offset="0%" stop-color="#1c6fff"/><stop offset="32%" stop-color="#5535e0"/><stop offset="66%" stop-color="#e84520"/><stop offset="100%" stop-color="#f5a000"/></linearGradient></defs><rect x="0" y="38" width="1280" height="2" fill="url(#gb5218)"/><rect x="0" y="40" width="190" height="760" fill="rgba(9,9,10,0.98)"/>
<rect x="190" y="40" width="1" height="760" fill="rgba(255,255,255,0.07)"/>
<g transform="translate(13.0,55.0) scale(0.22)"><use href="#mark"/></g>
<text x="42" y="63" font-size="11" font-weight="500" font-family="monospace" fill="#e8e5de">OpenYantra</text>
<text x="42" y="75" font-size="8" font-family="monospace" fill="#524f58" letter-spacing="1.5">V3.0.0</text>
<rect x="0" y="86" width="190" height="1" fill="rgba(255,255,255,0.07)"/>
<text x="14" y="102" font-size="11" font-family="monospace" fill="#524f58">🌅 Today</text>
<text x="14" y="124" font-size="11" font-family="monospace" fill="#524f58">📥 Inbox</text>
<text x="14" y="146" font-size="11" font-family="monospace" fill="#524f58">🚀 Projects</text>
<text x="14" y="168" font-size="11" font-family="monospace" fill="#524f58">🔓 Open Loops</text>
<text x="14" y="190" font-size="11" font-family="monospace" fill="#524f58">✅ Tasks</text>
<text x="14" y="212" font-size="11" font-family="monospace" fill="#524f58">🎯 Goals</text>
<text x="14" y="234" font-size="11" font-family="monospace" fill="#524f58">📅 Timeline</text>
<text x="14" y="256" font-size="11" font-family="monospace" fill="#524f58">⚡ Conflicts</text>
<text x="14" y="278" font-size="11" font-family="monospace" fill="#524f58">🔒 Security</text>
<text x="14" y="300" font-size="11" font-family="monospace" fill="#524f58">📒 Ledger</text>
<text x="14" y="322" font-size="11" font-family="monospace" fill="#524f58">💚 Health</text>
<rect x="0" y="330" width="3" height="22" fill="#f5a000"/>
<rect x="0" y="330" width="190" height="22" fill="rgba(255,255,255,0.02)"/>
<text x="14" y="344" font-size="11" font-family="monospace" fill="#e8e5de">📊 Stats</text>
<rect x="0" y="760" width="190" height="40" fill="rgba(9,9,10,0.98)"/>
<rect x="0" y="760" width="190" height="1" fill="rgba(255,255,255,0.07)"/>
<circle cx="18" cy="776" r="3.5" fill="#1aa167"/>
<text x="28" y="779" font-size="9" font-family="monospace" fill="#1aa167">Chitrapat active</text>
<text x="14" y="793" font-size="8" font-family="monospace" fill="#242228">SQLite WAL backend</text><rect x="190" y="40" width="1090" height="44" fill="#111113"/><rect x="190" y="84" width="1090" height="1" fill="rgba(255,255,255,0.07)"/><text x="210" y="67" font-size="13" font-weight="500" font-family="monospace" fill="#e8e5de">📊 Memory Growth Analytics</text><rect x="190" y="85" width="272" height="52" fill="#111113"/>
<text x="210" y="108" font-size="22" font-weight="300" font-family="monospace" fill="#1c6fff">510</text>
<text x="210" y="126" font-size="8" font-family="monospace" fill="#524f58" letter-spacing="1">TOTAL ROWS</text>
<rect x="462" y="85" width="272" height="52" fill="#111113"/>
<text x="482" y="108" font-size="22" font-weight="300" font-family="monospace" fill="#5535e0">489</text>
<text x="482" y="126" font-size="8" font-family="monospace" fill="#524f58" letter-spacing="1">TOTAL WRITES</text>
<rect x="462" y="85" width="1" height="52" fill="rgba(255,255,255,0.07)"/>
<rect x="734" y="85" width="272" height="52" fill="#111113"/>
<text x="754" y="108" font-size="22" font-weight="300" font-family="monospace" fill="#f5a000">38</text>
<text x="754" y="126" font-size="8" font-family="monospace" fill="#524f58" letter-spacing="1">LAST 7 DAYS</text>
<rect x="734" y="85" width="1" height="52" fill="rgba(255,255,255,0.07)"/>
<rect x="1006" y="85" width="272" height="52" fill="#111113"/>
<text x="1026" y="108" font-size="22" font-weight="300" font-family="monospace" fill="#1aa167">58%</text>
<text x="1026" y="126" font-size="8" font-family="monospace" fill="#524f58" letter-spacing="1">LOOP RESOLUTION</text>
<rect x="1006" y="85" width="1" height="52" fill="rgba(255,255,255,0.07)"/>
<rect x="190" y="137" width="1090" height="1" fill="rgba(255,255,255,0.07)"/><rect x="210" y="186" width="510" height="330" fill="#111113" stroke="rgba(255,255,255,0.07)" stroke-width="1"/><defs><linearGradient id="gb5141" x1="210" y1="186" x2="720" y2="186" gradientUnits="userSpaceOnUse"><stop offset="0%" stop-color="#1c6fff"/><stop offset="32%" stop-color="#5535e0"/><stop offset="66%" stop-color="#e84520"/><stop offset="100%" stop-color="#f5a000"/></linearGradient></defs><rect x="210" y="186" width="510" height="2" fill="url(#gb5141)"/><text x="228" y="208" font-size="9" font-family="monospace" fill="#524f58" letter-spacing="1.5">ROWS BY SHEET</text><text x="228" y="234" font-size="9" font-weight="normal" font-family="monospace" fill="#e8e5de" text-anchor="start" letter-spacing="0">Projects</text><rect x="320" y="224" width="300" height="14" fill="#242228"/><rect x="320" y="224" width="108" height="14" fill="#1c6fff" opacity="0.8"/><text x="626" y="234" font-size="9" font-weight="normal" font-family="monospace" fill="#e8e5de" text-anchor="start" letter-spacing="0">18</text><text x="228" y="262" font-size="9" font-weight="normal" font-family="monospace" fill="#e8e5de" text-anchor="start" letter-spacing="0">Open Loops</text><rect x="320" y="252" width="300" height="14" fill="#242228"/><rect x="320" y="252" width="72" height="14" fill="#f5a000" opacity="0.8"/><text x="626" y="262" font-size="9" font-weight="normal" font-family="monospace" fill="#e8e5de" text-anchor="start" letter-spacing="0">12</text><text x="228" y="290" font-size="9" font-weight="normal" font-family="monospace" fill="#e8e5de" text-anchor="start" letter-spacing="0">Session Log</text><rect x="320" y="280" width="300" height="14" fill="#242228"/><rect x="320" y="280" width="174" height="14" fill="#5535e0" opacity="0.8"/><text x="626" y="290" font-size="9" font-weight="normal" font-family="monospace" fill="#e8e5de" text-anchor="start" letter-spacing="0">29</text><text x="228" y="318" font-size="9" font-weight="normal" font-family="monospace" fill="#e8e5de" text-anchor="start" letter-spacing="0">Beliefs</text><rect x="320" y="308" width="300" height="14" fill="#242228"/><rect x="320" y="308" width="246" height="14" fill="#e84520" opacity="0.8"/><text x="626" y="318" font-size="9" font-weight="normal" font-family="monospace" fill="#e8e5de" text-anchor="start" letter-spacing="0">41</text><text x="228" y="346" font-size="9" font-weight="normal" font-family="monospace" fill="#e8e5de" text-anchor="start" letter-spacing="0">Tasks</text><rect x="320" y="336" width="300" height="14" fill="#242228"/><rect x="320" y="336" width="138" height="14" fill="#1aa167" opacity="0.8"/><text x="626" y="346" font-size="9" font-weight="normal" font-family="monospace" fill="#e8e5de" text-anchor="start" letter-spacing="0">23</text><text x="228" y="374" font-size="9" font-weight="normal" font-family="monospace" fill="#e8e5de" text-anchor="start" letter-spacing="0">People</text><rect x="320" y="364" width="300" height="14" fill="#242228"/><rect x="320" y="364" width="84" height="14" fill="#d4af37" opacity="0.8"/><text x="626" y="374" font-size="9" font-weight="normal" font-family="monospace" fill="#e8e5de" text-anchor="start" letter-spacing="0">14</text><text x="228" y="402" font-size="9" font-weight="normal" font-family="monospace" fill="#e8e5de" text-anchor="start" letter-spacing="0">Goals</text><rect x="320" y="392" width="300" height="14" fill="#242228"/><rect x="320" y="392" width="48" height="14" fill="#1c6fff" opacity="0.8"/><text x="626" y="402" font-size="9" font-weight="normal" font-family="monospace" fill="#e8e5de" text-anchor="start" letter-spacing="0">8</text><text x="228" y="430" font-size="9" font-weight="normal" font-family="monospace" fill="#e8e5de" text-anchor="start" letter-spacing="0">Preferences</text><rect x="320" y="420" width="300" height="14" fill="#242228"/><rect x="320" y="420" width="102" height="14" fill="#5535e0" opacity="0.8"/><text x="626" y="430" font-size="9" font-weight="normal" font-family="monospace" fill="#e8e5de" text-anchor="start" letter-spacing="0">17</text><text x="228" y="458" font-size="9" font-weight="normal" font-family="monospace" fill="#e8e5de" text-anchor="start" letter-spacing="0">Inbox</text><rect x="320" y="448" width="300" height="14" fill="#242228"/><rect x="320" y="448" width="18" height="14" fill="#f5a000" opacity="0.8"/><text x="626" y="458" font-size="9" font-weight="normal" font-family="monospace" fill="#e8e5de" text-anchor="start" letter-spacing="0">3</text><text x="228" y="486" font-size="9" font-weight="normal" font-family="monospace" fill="#e8e5de" text-anchor="start" letter-spacing="0">Identity</text><rect x="320" y="476" width="300" height="14" fill="#242228"/><rect x="320" y="476" width="60" height="14" fill="#1aa167" opacity="0.8"/><text x="626" y="486" font-size="9" font-weight="normal" font-family="monospace" fill="#e8e5de" text-anchor="start" letter-spacing="0">10</text><rect x="740" y="186" width="520" height="180" fill="#111113" stroke="rgba(255,255,255,0.07)" stroke-width="1"/><defs><linearGradient id="gb3569" x1="740" y1="186" x2="1260" y2="186" gradientUnits="userSpaceOnUse"><stop offset="0%" stop-color="#1c6fff"/><stop offset="32%" stop-color="#5535e0"/><stop offset="66%" stop-color="#e84520"/><stop offset="100%" stop-color="#f5a000"/></linearGradient></defs><rect x="740" y="186" width="520" height="2" fill="url(#gb3569)"/><text x="758" y="208" font-size="9" font-family="monospace" fill="#524f58" letter-spacing="1.5">WRITES BY AGENT</text><text x="758" y="234" font-size="9" font-weight="normal" font-family="monospace" fill="#e8e5de" text-anchor="start" letter-spacing="0">Chitragupta</text><rect x="860" y="224" width="300" height="14" fill="#242228"/><rect x="860" y="224" width="270" height="14" fill="#1c6fff" opacity="0.8"/><text x="1164" y="234" font-size="9" font-weight="normal" font-family="monospace" fill="#e8e5de" text-anchor="start" letter-spacing="0">360</text><text x="758" y="262" font-size="9" font-weight="normal" font-family="monospace" fill="#e8e5de" text-anchor="start" letter-spacing="0">Claude</text><rect x="860" y="252" width="300" height="14" fill="#242228"/><rect x="860" y="252" width="54" height="14" fill="#5535e0" opacity="0.8"/><text x="1164" y="262" font-size="9" font-weight="normal" font-family="monospace" fill="#e8e5de" text-anchor="start" letter-spacing="0">72</text><text x="758" y="290" font-size="9" font-weight="normal" font-family="monospace" fill="#e8e5de" text-anchor="start" letter-spacing="0">Yantra-UI</text><rect x="860" y="280" width="300" height="14" fill="#242228"/><rect x="860" y="280" width="21" height="14" fill="#f5a000" opacity="0.8"/><text x="1164" y="290" font-size="9" font-weight="normal" font-family="monospace" fill="#e8e5de" text-anchor="start" letter-spacing="0">29</text><text x="758" y="318" font-size="9" font-weight="normal" font-family="monospace" fill="#e8e5de" text-anchor="start" letter-spacing="0">TelegramBot</text><rect x="860" y="308" width="300" height="14" fill="#242228"/><rect x="860" y="308" width="10" height="14" fill="#e84520" opacity="0.8"/><text x="1164" y="318" font-size="9" font-weight="normal" font-family="monospace" fill="#e8e5de" text-anchor="start" letter-spacing="0">14</text><text x="758" y="346" font-size="9" font-weight="normal" font-family="monospace" fill="#e8e5de" text-anchor="start" letter-spacing="0">Morning</text><rect x="860" y="336" width="300" height="14" fill="#242228"/><rect x="860" y="336" width="10" height="14" fill="#1aa167" opacity="0.8"/><text x="1164" y="346" font-size="9" font-weight="normal" font-family="monospace" fill="#e8e5de" text-anchor="start" letter-spacing="0">14</text><rect x="740" y="380" width="520" height="126" fill="#111113" stroke="rgba(255,255,255,0.07)" stroke-width="1"/><defs><linearGradient id="gb7892" x1="740" y1="380" x2="1260" y2="380" gradientUnits="userSpaceOnUse"><stop offset="0%" stop-color="#1c6fff"/><stop offset="32%" stop-color="#5535e0"/><stop offset="66%" stop-color="#e84520"/><stop offset="100%" stop-color="#f5a000"/></linearGradient></defs><rect x="740" y="380" width="520" height="2" fill="url(#gb7892)"/><text x="758" y="402" font-size="9" font-family="monospace" fill="#524f58" letter-spacing="1.5">LOOP HEALTH</text><text x="758" y="430" font-size="10" font-weight="normal" font-family="monospace" fill="#524f58" text-anchor="start" letter-spacing="0">Open: </text><text x="800" y="430" font-size="18" font-weight="300" font-family="monospace" fill="#f5a000" text-anchor="start" letter-spacing="0">12</text><text x="830" y="430" font-size="10" font-weight="normal" font-family="monospace" fill="#524f58" text-anchor="start" letter-spacing="0">   Closed: </text><text x="910" y="430" font-size="18" font-weight="300" font-family="monospace" fill="#1aa167" text-anchor="start" letter-spacing="0">17</text><text x="758" y="460" font-size="9" font-weight="normal" font-family="monospace" fill="#524f58" text-anchor="start" letter-spacing="0">Resolution rate: 58.6%  ·  Average age: 18 days</text><rect x="758" y="476" width="480" height="12" fill="#242228"/><rect x="758" y="476" width="281" height="12" fill="#1aa167" opacity="0.7"/><rect x="210" y="530" width="1050" height="240" fill="#111113" stroke="rgba(255,255,255,0.07)" stroke-width="1"/><defs><linearGradient id="gb7795" x1="210" y1="530" x2="1260" y2="530" gradientUnits="userSpaceOnUse"><stop offset="0%" stop-color="#1c6fff"/><stop offset="32%" stop-color="#5535e0"/><stop offset="66%" stop-color="#e84520"/><stop offset="100%" stop-color="#f5a000"/></linearGradient></defs><rect x="210" y="530" width="1050" height="2" fill="url(#gb7795)"/><text x="228" y="552" font-size="9" font-family="monospace" fill="#524f58" letter-spacing="1.5">WRITE VELOCITY -- LAST 14 DAYS</text><rect x="260" y="721" width="40" height="7" fill="#1c6fff" opacity="0.85"/><text x="280" y="748" font-size="7" font-weight="normal" font-family="monospace" fill="#524f58" text-anchor="middle" letter-spacing="0">Mar 9</text><rect x="316" y="712" width="40" height="16" fill="#1c6fff" opacity="0.85"/><text x="336" y="748" font-size="7" font-weight="normal" font-family="monospace" fill="#524f58" text-anchor="middle" letter-spacing="0">Mar 10</text><rect x="372" y="699" width="40" height="29" fill="#1c6fff" opacity="0.85"/><text x="392" y="748" font-size="7" font-weight="normal" font-family="monospace" fill="#524f58" text-anchor="middle" letter-spacing="0">Mar 11</text><rect x="428" y="715" width="40" height="13" fill="#1c6fff" opacity="0.85"/><text x="448" y="748" font-size="7" font-weight="normal" font-family="monospace" fill="#524f58" text-anchor="middle" letter-spacing="0">Mar 12</text><rect x="484" y="706" width="40" height="22" fill="#5535e0" opacity="0.85"/><text x="504" y="748" font-size="7" font-weight="normal" font-family="monospace" fill="#524f58" text-anchor="middle" letter-spacing="0">Mar 13</text><rect x="540" y="697" width="40" height="31" fill="#5535e0" opacity="0.85"/><text x="560" y="748" font-size="7" font-weight="normal" font-family="monospace" fill="#524f58" text-anchor="middle" letter-spacing="0">Mar 14</text><rect x="596" y="690" width="40" height="38" fill="#e84520" opacity="0.85"/><text x="616" y="748" font-size="7" font-weight="normal" font-family="monospace" fill="#524f58" text-anchor="middle" letter-spacing="0">Mar 15</text><rect x="652" y="708" width="40" height="20" fill="#e84520" opacity="0.85"/><text x="672" y="748" font-size="7" font-weight="normal" font-family="monospace" fill="#524f58" text-anchor="middle" letter-spacing="0">Mar 16</text><rect x="708" y="679" width="40" height="49" fill="#f5a000" opacity="0.85"/><text x="728" y="748" font-size="7" font-weight="normal" font-family="monospace" fill="#524f58" text-anchor="middle" letter-spacing="0">Mar 17</text><rect x="764" y="701" width="40" height="27" fill="#f5a000" opacity="0.85"/><text x="784" y="748" font-size="7" font-weight="normal" font-family="monospace" fill="#524f58" text-anchor="middle" letter-spacing="0">Mar 18</text><rect x="820" y="685" width="40" height="43" fill="#1aa167" opacity="0.85"/><text x="840" y="748" font-size="7" font-weight="normal" font-family="monospace" fill="#524f58" text-anchor="middle" letter-spacing="0">Mar 19</text><rect x="876" y="672" width="40" height="56" fill="#1aa167" opacity="0.85"/><text x="896" y="748" font-size="7" font-weight="normal" font-family="monospace" fill="#524f58" text-anchor="middle" letter-spacing="0">Mar 20</text><rect x="932" y="645" width="40" height="83" fill="url(#grad)" opacity="0.85"/><text x="952" y="748" font-size="7" font-weight="normal" font-family="monospace" fill="#524f58" text-anchor="middle" letter-spacing="0">Mar 21</text><rect x="228" y="733" width="1020" height="1" fill="rgba(255,255,255,0.07)"/></svg>