<svg xmlns="http://www.w3.org/2000/svg" viewBox="0 0 1280 720" width="1280" height="720"><defs>
  <linearGradient id="grad" x1="0" y1="0" x2="1" y2="0">
    <stop offset="0%" stop-color="#1c6fff"/>
    <stop offset="32%" stop-color="#5535e0"/>
    <stop offset="66%" stop-color="#e84520"/>
    <stop offset="100%" stop-color="#f5a000"/>
  </linearGradient>
  <linearGradient id="mG" x1="0" y1="0" x2="100" y2="100" gradientUnits="userSpaceOnUse">
    <stop offset="0%" stop-color="#1c6fff"/>
    <stop offset="33%" stop-color="#5535e0"/>
    <stop offset="66%" stop-color="#e84520"/>
    <stop offset="100%" stop-color="#f5a000"/>
  </linearGradient>
  <pattern id="gp" width="32" height="32" patternUnits="userSpaceOnUse">
    <path d="M32 0L0 0 0 32" fill="none" stroke="rgba(255,255,255,0.017)" stroke-width="1"/>
  </pattern>
  <!-- CANONICAL MARK — exact from brand-manual.html -->
  <g id="mark">
    <circle cx="50" cy="50" r="47" stroke="url(#mG)" stroke-width="1.5" fill="none"/>
    <circle cx="50" cy="50" r="33" stroke="url(#mG)" stroke-width="1" fill="none" opacity="0.5"/>
    <circle cx="50" cy="50" r="18" stroke="url(#mG)" stroke-width="0.8" fill="none" opacity="0.3"/>
    <circle cx="50" cy="50" r="4" fill="url(#mG)"/>
    <line x1="50" y1="3"  x2="50" y2="97" stroke="url(#mG)" stroke-width="0.7" opacity="0.2"/>
    <line x1="3"  y1="50" x2="97" y2="50" stroke="url(#mG)" stroke-width="0.7" opacity="0.2"/>
    <line x1="17" y1="17" x2="83" y2="83" stroke="url(#mG)" stroke-width="0.5" opacity="0.12"/>
    <line x1="83" y1="17" x2="17" y2="83" stroke="url(#mG)" stroke-width="0.5" opacity="0.12"/>
    <circle cx="50" cy="3"  r="3" fill="#1c6fff"/>
    <circle cx="97" cy="50" r="3" fill="#5535e0"/>
    <circle cx="50" cy="97" r="3" fill="#e84520"/>
    <circle cx="3"  cy="50" r="3" fill="#f5a000"/>
    <path d="M50 3 Q68 26 50 50 Q32 26 50 3"   stroke="url(#mG)" stroke-width="0.9" fill="none" opacity="0.45"/>
    <path d="M97 50 Q74 68 50 50 Q74 32 97 50"  stroke="url(#mG)" stroke-width="0.9" fill="none" opacity="0.45"/>
    <path d="M50 97 Q32 74 50 50 Q68 74 50 97"  stroke="url(#mG)" stroke-width="0.9" fill="none" opacity="0.45"/>
    <path d="M3 50 Q26 32 50 50 Q26 68 3 50"    stroke="url(#mG)" stroke-width="0.9" fill="none" opacity="0.45"/>
    <path d="M17 17 Q38 38 50 50 Q29 29 17 17"  stroke="url(#mG)" stroke-width="0.6" fill="none" opacity="0.22"/>
    <path d="M83 17 Q62 38 50 50 Q71 29 83 17"  stroke="url(#mG)" stroke-width="0.6" fill="none" opacity="0.22"/>
    <path d="M83 83 Q62 62 50 50 Q71 71 83 83"  stroke="url(#mG)" stroke-width="0.6" fill="none" opacity="0.22"/>
    <path d="M17 83 Q38 62 50 50 Q29 71 17 83"  stroke="url(#mG)" stroke-width="0.6" fill="none" opacity="0.22"/>
  </g>
</defs><rect width="1280" height="720" fill="#0a0a0b"/><rect width="1280" height="720" fill="url(#gp)"/><rect width="1280" height="38" fill="#111113"/><circle cx="16" cy="19" r="5.5" fill="#ff5f57"/><circle cx="32" cy="19" r="5.5" fill="#febc2e"/><circle cx="48" cy="19" r="5.5" fill="#28c840"/><text x="640" y="24" text-anchor="middle" font-size="11" font-family="monospace" fill="#524f58" letter-spacing="1">localhost:7331 -- OpenYantra v3.0.0</text><defs><linearGradient id="gb5218" x1="0" y1="38" x2="1280" y2="38" gradientUnits="userSpaceOnUse"><stop offset="0%" stop-color="#1c6fff"/><stop offset="32%" stop-color="#5535e0"/><stop offset="66%" stop-color="#e84520"/><stop offset="100%" stop-color="#f5a000"/></linearGradient></defs><rect x="0" y="38" width="1280" height="2" fill="url(#gb5218)"/><defs><linearGradient id="gb5218" x1="0" y1="38" x2="1280" y2="38" gradientUnits="userSpaceOnUse"><stop offset="0%" stop-color="#1c6fff"/><stop offset="32%" stop-color="#5535e0"/><stop offset="66%" stop-color="#e84520"/><stop offset="100%" stop-color="#f5a000"/></linearGradient></defs><rect x="0" y="38" width="1280" height="2" fill="url(#gb5218)"/><rect x="140" y="40" width="1000" height="640" fill="#070708" stroke="rgba(255,255,255,0.07)" stroke-width="1"/><rect x="140" y="40" width="1000" height="36" fill="#111113"/><circle cx="164" cy="58" r="5.5" fill="#ff5f57"/><circle cx="182" cy="58" r="5.5" fill="#febc2e"/><circle cx="200" cy="58" r="5.5" fill="#28c840"/><text x="640" y="63" font-size="10" font-weight="normal" font-family="monospace" fill="#524f58" text-anchor="middle" letter-spacing="0">yantra bootstrap -- zsh</text><defs><linearGradient id="gb8746" x1="140" y1="76" x2="1140" y2="76" gradientUnits="userSpaceOnUse"><stop offset="0%" stop-color="#1c6fff"/><stop offset="32%" stop-color="#5535e0"/><stop offset="66%" stop-color="#e84520"/><stop offset="100%" stop-color="#f5a000"/></linearGradient></defs><rect x="140" y="76" width="1000" height="2" fill="url(#gb8746)"/><text x="170" y="108" font-size="13" font-weight="normal" font-family="monospace" fill="#e84520" text-anchor="start" letter-spacing="0">$</text><text x="188" y="108" font-size="13" font-weight="normal" font-family="monospace" fill="#f5a000" text-anchor="start" letter-spacing="0">yantra</text><text x="265" y="108" font-size="13" font-weight="normal" font-family="monospace" fill="#1c6fff" text-anchor="start" letter-spacing="0">bootstrap</text><text x="170" y="140" font-size="12" font-weight="normal" font-family="monospace" fill="#242228" text-anchor="start" letter-spacing="0">==============================================================</text><text x="170" y="160" font-size="12" font-weight="normal" font-family="monospace" fill="#f5a000" text-anchor="start" letter-spacing="0">  OpenYantra -- Chitragupta Puja</text><text x="170" y="180" font-size="12" font-weight="normal" font-family="monospace" fill="#f5a000" text-anchor="start" letter-spacing="0">  The Sacred Memory Machine v3.0.0</text><text x="170" y="200" font-size="12" font-weight="normal" font-family="monospace" fill="#5535e0" text-anchor="start" letter-spacing="0">  Inspired by Chitragupta, the Hindu God of Data</text><text x="170" y="220" font-size="12" font-weight="normal" font-family="monospace" fill="#242228" text-anchor="start" letter-spacing="0">==============================================================</text><text x="170" y="260" font-size="12" font-weight="normal" font-family="monospace" fill="#524f58" text-anchor="start" letter-spacing="0">Namaste. I am Chitragupta, your memory keeper.</text><text x="170" y="280" font-size="12" font-weight="normal" font-family="monospace" fill="#524f58" text-anchor="start" letter-spacing="0">Answer what feels right. Press Enter to skip any question.</text><text x="170" y="300" font-size="12" font-weight="normal" font-family="monospace" fill="#524f58" text-anchor="start" letter-spacing="0">This takes about 5 minutes.</text><text x="170" y="348" font-size="11" font-weight="normal" font-family="monospace" fill="#524f58" text-anchor="start" letter-spacing="0">  [3/12]</text><rect x="250" y="339" width="160" height="12" fill="#242228"/><defs><linearGradient id="gb8726" x1="250" y1="339" x2="290" y2="339" gradientUnits="userSpaceOnUse"><stop offset="0%" stop-color="#1c6fff"/><stop offset="32%" stop-color="#5535e0"/><stop offset="66%" stop-color="#e84520"/><stop offset="100%" stop-color="#f5a000"/></linearGradient></defs><rect x="250" y="339" width="40" height="12" fill="url(#gb8726)"/><text x="170" y="370" font-size="12" font-weight="normal" font-family="monospace" fill="#e8e5de" text-anchor="start" letter-spacing="0">  Q3 -- Life Domains</text><text x="170" y="392" font-size="12" font-weight="normal" font-family="monospace" fill="#524f58" text-anchor="start" letter-spacing="0">  What are your 3-5 most important life areas right now?</text><text x="170" y="412" font-size="11" font-weight="normal" font-family="monospace" fill="#242228" text-anchor="start" letter-spacing="0">  (e.g. career, health, creative work, family -- comma separated)</text><text x="170" y="436" font-size="12" font-weight="normal" font-family="monospace" fill="#1c6fff" text-anchor="start" letter-spacing="0">  -></text><text x="204" y="436" font-size="12" font-weight="normal" font-family="monospace" fill="#e8e5de" text-anchor="start" letter-spacing="0">filmmaking, writing, open source</text><text x="170" y="470" font-size="11" font-weight="normal" font-family="monospace" fill="#242228" text-anchor="start" letter-spacing="0">  ──────────────────────────────────────────</text><text x="170" y="490" font-size="11" font-weight="normal" font-family="monospace" fill="#524f58" text-anchor="start" letter-spacing="0">  ✓ Q1 -- Pain point: "AI always forgets my active projects"</text><text x="170" y="508" font-size="11" font-weight="normal" font-family="monospace" fill="#524f58" text-anchor="start" letter-spacing="0">  ✓ Q2 -- Revanth Levaka | Filmmaker | Hyderabad, IN</text><text x="170" y="526" font-size="11" font-weight="normal" font-family="monospace" fill="#524f58" text-anchor="start" letter-spacing="0">     Language: English</text><text x="170" y="560" font-size="11" font-weight="normal" font-family="monospace" fill="#242228" text-anchor="start" letter-spacing="0">  Remaining: Q4-Q11 · Projects, Goals, People, Preferences, Anti-goals, Beliefs, Loops, Reminders</text></svg>